<svg width="567" height="722" viewBox="0 0 567 722" fill="none" xmlns="http://www.w3.org/2000/svg">
<path fill-rule="evenodd" clip-rule="evenodd" d="M265.355 36.8407C337.586 33.1327 412.942 -23.5003 476.388 11.2113C539.378 45.6734 563.259 130.124 566.895 201.815C570.089 264.764 499.192 309.574 494.712 372.446C489.632 443.715 565.086 510.54 540.121 577.49C515.242 644.211 439.949 681.176 371.83 701.984C303.326 722.91 217.904 737.261 161.474 693.154C103.292 647.676 129.33 552.111 95.8768 486.287C73.6283 442.51 9.81362 425.784 1.03626 377.471C-7.76423 329.031 42.117 290.168 51.4644 241.83C65.0476 171.588 16.1467 81.6959 67.8066 32.1859C116.337 -14.3247 198.214 40.2874 265.355 36.8407Z" fill="url(#paint0_linear_5518_3504)"/>
<defs>
<linearGradient id="paint0_linear_5518_3504" x1="95.1156" y1="43.5082" x2="589.656" y2="609.393" gradientUnits="userSpaceOnUse">
<stop stop-color="#7673FF"/>
<stop offset="1" stop-color="#42F4FF"/>
</linearGradient>
</defs>
</svg>
