<svg width="321" height="240" viewBox="0 0 321 240" fill="none" xmlns="http://www.w3.org/2000/svg">
<path d="M73.9389 82.072L58.0856 70.9888H40.5488" stroke="white" stroke-width="0.280589"/>
<path d="M125.287 211.564L109.433 222.647H91.8965" stroke="white" stroke-width="0.280589"/>
<path d="M229.665 190.52L245.518 201.603H263.055" stroke="white" stroke-width="0.280589"/>
<path d="M288.869 115.182L273.015 104.099H255.479" stroke="white" stroke-width="0.280589"/>
<path d="M196.274 40.9334L212.127 29.8501H229.664" stroke="white" stroke-width="0.280589"/>
<path d="M226.579 68.2219L242.432 57.1387H259.969" stroke="white" stroke-width="0.280589"/>
<path d="M160 26L174.244 10H190" stroke="white" stroke-width="0.280589"/>
<path d="M145.769 29.3215L129.916 18.2383H112.379" stroke="white" stroke-width="0.280589"/>
<path d="M195.634 206.406C196.815 209.271 200.103 210.652 202.896 209.307C214.874 203.536 225.548 195.339 234.229 185.215C242.91 175.091 249.382 163.291 253.258 150.573C254.162 147.608 252.295 144.569 249.283 143.839L234.714 140.311C231.702 139.582 228.69 141.442 227.723 144.386C224.862 153.091 220.317 161.169 214.33 168.152C208.342 175.135 201.052 180.859 192.886 185.014C190.123 186.42 188.745 189.68 189.925 192.546L195.634 206.406Z" fill="url(#paint0_linear_5518_3551)"/>
<path d="M139.673 34.2625C138.943 31.2505 135.903 29.3848 132.938 30.2891C120.915 33.9569 109.708 39.9469 99.9589 47.9387C88.7611 57.1182 79.7753 68.7026 73.6692 81.8316C67.5631 94.9605 64.4935 109.296 64.6884 123.775C64.8581 136.379 67.4985 148.81 72.4401 160.368C73.6585 163.217 77.044 164.34 79.818 162.958L88.6435 158.561C91.4175 157.178 92.5248 153.816 91.353 150.946C87.7971 142.24 85.8974 132.928 85.7704 123.491C85.6181 112.18 88.0162 100.98 92.7866 90.7228C97.557 80.4659 104.577 71.4156 113.325 64.2441C120.624 58.2608 128.97 53.7138 137.919 50.8232C140.868 49.8707 142.727 46.8572 141.996 43.8452L139.673 34.2625Z" fill="url(#paint1_linear_5518_3551)"/>
<path d="M81.495 166.162C78.7782 167.654 77.7714 171.076 79.4185 173.701C90.7203 191.715 107.7 205.536 127.754 212.921C147.808 220.306 169.696 220.8 189.982 214.418C192.938 213.488 194.391 210.231 193.291 207.333L188.658 195.135C187.557 192.237 184.321 190.803 181.347 191.675C166.552 196.012 150.702 195.506 136.142 190.144C121.583 184.782 109.19 174.887 100.742 161.991C99.0436 159.398 95.6499 158.39 92.9332 159.882L81.495 166.162Z" fill="url(#paint2_linear_5518_3551)"/>
<path d="M195.634 206.406C196.815 209.271 200.103 210.652 202.896 209.307C214.874 203.536 225.548 195.339 234.229 185.215C242.91 175.091 249.382 163.291 253.258 150.573C254.162 147.608 252.295 144.569 249.283 143.839L234.714 140.312C231.702 139.582 228.69 141.442 227.723 144.386C224.862 153.091 220.317 161.169 214.33 168.152C208.342 175.135 201.052 180.859 192.886 185.014C190.123 186.42 188.745 189.68 189.925 192.546L195.634 206.406Z" fill="url(#paint3_linear_5518_3551)"/>
<path d="M249.715 141.969C252.742 142.634 255.753 140.721 256.241 137.66C259.495 117.264 256.109 96.3535 246.582 78.027C245.153 75.277 241.692 74.4117 239.03 75.9987L227.827 82.6769C225.165 84.2639 224.315 87.7004 225.69 90.4779C232.12 103.463 234.489 118.09 232.487 132.44C232.059 135.51 233.95 138.502 236.977 139.168L249.715 141.969Z" fill="url(#paint4_linear_5518_3551)"/>
<path d="M237.776 73.9561C240.395 72.2994 241.189 68.8221 239.382 66.3036C232.84 57.1823 224.755 49.2734 215.491 42.9345C212.933 41.1843 209.474 42.0545 207.876 44.7099L202.072 54.3518C200.473 57.0071 201.345 60.4383 203.871 62.2336C210.171 66.7103 215.73 72.1479 220.345 78.3473C222.195 80.8334 225.645 81.6287 228.264 79.972L237.776 73.9561Z" fill="url(#paint5_linear_5518_3551)"/>
<path d="M170.043 32.1519C170.349 29.0678 173.102 26.7995 176.163 27.2851C185.644 28.7891 194.847 31.7011 203.467 35.9246C206.251 37.2882 207.197 40.727 205.674 43.4261L199.898 53.6612C198.375 56.3603 194.96 57.2923 192.152 55.9797C186.341 53.2628 180.199 51.3193 173.882 50.1989C170.831 49.6576 168.573 46.9307 168.88 43.8466L170.043 32.1519Z" fill="url(#paint6_linear_5518_3551)"/>
<path d="M167.579 31.9408C167.802 28.8495 165.475 26.1459 162.376 26.1037C161.071 26.0859 159.765 26.0946 158.46 26.1298C155.362 26.2135 153.072 28.9479 153.336 32.0359L154.266 42.9269C154.53 46.0149 157.249 48.2822 160.348 48.2524C160.493 48.251 160.639 48.25 160.784 48.2494C163.883 48.2378 166.572 45.9345 166.794 42.8432L167.579 31.9408Z" fill="url(#paint7_linear_5518_3551)"/>
<path d="M150.243 31.2762C149.947 28.7852 147.686 26.9945 145.211 27.407V27.407C142.737 27.8195 141.179 30.247 141.708 32.6991L144.465 45.4873C144.877 47.4008 146.762 48.6089 148.693 48.287V48.287C150.624 47.9651 152.014 46.2109 151.784 44.267L150.243 31.2762Z" fill="url(#paint8_linear_5518_3551)"/>
<path d="M9.63844 73.9456C8.90844 73.9456 8.18344 73.8506 7.46344 73.6606C6.74344 73.4606 6.13344 73.1806 5.63344 72.8206L6.57844 70.9606C6.97844 71.2506 7.44344 71.4806 7.97344 71.6506C8.50344 71.8206 9.03844 71.9056 9.57844 71.9056C10.1884 71.9056 10.6684 71.7856 11.0184 71.5456C11.3684 71.3056 11.5434 70.9756 11.5434 70.5556C11.5434 70.1556 11.3884 69.8406 11.0784 69.6106C10.7684 69.3806 10.2684 69.2656 9.57844 69.2656H8.46844V67.6606L11.3934 64.3456L11.6634 65.2156H6.15844V63.2656H13.5084V64.8406L10.5984 68.1556L9.36844 67.4506H10.0734C11.3634 67.4506 12.3384 67.7406 12.9984 68.3206C13.6584 68.9006 13.9884 69.6456 13.9884 70.5556C13.9884 71.1456 13.8334 71.7006 13.5234 72.2206C13.2134 72.7306 12.7384 73.1456 12.0984 73.4656C11.4584 73.7856 10.6384 73.9456 9.63844 73.9456ZM19.6104 73.9456C18.7504 73.9456 17.9804 73.7356 17.3004 73.3156C16.6204 72.8856 16.0854 72.2656 15.6954 71.4556C15.3054 70.6456 15.1104 69.6656 15.1104 68.5156C15.1104 67.3656 15.3054 66.3856 15.6954 65.5756C16.0854 64.7656 16.6204 64.1506 17.3004 63.7306C17.9804 63.3006 18.7504 63.0856 19.6104 63.0856C20.4804 63.0856 21.2504 63.3006 21.9204 63.7306C22.6004 64.1506 23.1354 64.7656 23.5254 65.5756C23.9154 66.3856 24.1104 67.3656 24.1104 68.5156C24.1104 69.6656 23.9154 70.6456 23.5254 71.4556C23.1354 72.2656 22.6004 72.8856 21.9204 73.3156C21.2504 73.7356 20.4804 73.9456 19.6104 73.9456ZM19.6104 71.8906C20.0204 71.8906 20.3754 71.7756 20.6754 71.5456C20.9854 71.3156 21.2254 70.9506 21.3954 70.4506C21.5754 69.9506 21.6654 69.3056 21.6654 68.5156C21.6654 67.7256 21.5754 67.0806 21.3954 66.5806C21.2254 66.0806 20.9854 65.7156 20.6754 65.4856C20.3754 65.2556 20.0204 65.1406 19.6104 65.1406C19.2104 65.1406 18.8554 65.2556 18.5454 65.4856C18.2454 65.7156 18.0054 66.0806 17.8254 66.5806C17.6554 67.0806 17.5704 67.7256 17.5704 68.5156C17.5704 69.3056 17.6554 69.9506 17.8254 70.4506C18.0054 70.9506 18.2454 71.3156 18.5454 71.5456C18.8554 71.7756 19.2104 71.8906 19.6104 71.8906ZM26.8061 73.7656L33.9761 63.2656H35.7611L28.5911 73.7656H26.8061ZM27.7211 68.9356C27.2111 68.9356 26.7611 68.8206 26.3711 68.5906C25.9811 68.3506 25.6711 68.0156 25.4411 67.5856C25.2211 67.1456 25.1111 66.6306 25.1111 66.0406C25.1111 65.4506 25.2211 64.9406 25.4411 64.5106C25.6711 64.0806 25.9811 63.7456 26.3711 63.5056C26.7611 63.2656 27.2111 63.1456 27.7211 63.1456C28.2311 63.1456 28.6811 63.2656 29.0711 63.5056C29.4611 63.7456 29.7661 64.0806 29.9861 64.5106C30.2061 64.9406 30.3161 65.4506 30.3161 66.0406C30.3161 66.6306 30.2061 67.1456 29.9861 67.5856C29.7661 68.0156 29.4611 68.3506 29.0711 68.5906C28.6811 68.8206 28.2311 68.9356 27.7211 68.9356ZM27.7211 67.7056C28.0511 67.7056 28.3161 67.5706 28.5161 67.3006C28.7161 67.0206 28.8161 66.6006 28.8161 66.0406C28.8161 65.4806 28.7161 65.0656 28.5161 64.7956C28.3161 64.5156 28.0511 64.3756 27.7211 64.3756C27.4011 64.3756 27.1361 64.5156 26.9261 64.7956C26.7261 65.0656 26.6261 65.4806 26.6261 66.0406C26.6261 66.5906 26.7261 67.0056 26.9261 67.2856C27.1361 67.5656 27.4011 67.7056 27.7211 67.7056ZM34.8461 73.8856C34.3461 73.8856 33.8961 73.7706 33.4961 73.5406C33.1061 73.3006 32.8011 72.9656 32.5811 72.5356C32.3611 72.0956 32.2511 71.5806 32.2511 70.9906C32.2511 70.4006 32.3611 69.8906 32.5811 69.4606C32.8011 69.0306 33.1061 68.6956 33.4961 68.4556C33.8961 68.2156 34.3461 68.0956 34.8461 68.0956C35.3661 68.0956 35.8211 68.2156 36.2111 68.4556C36.6011 68.6956 36.9061 69.0306 37.1261 69.4606C37.3461 69.8906 37.4561 70.4006 37.4561 70.9906C37.4561 71.5806 37.3461 72.0956 37.1261 72.5356C36.9061 72.9656 36.6011 73.3006 36.2111 73.5406C35.8211 73.7706 35.3661 73.8856 34.8461 73.8856ZM34.8461 72.6556C35.1761 72.6556 35.4411 72.5206 35.6411 72.2506C35.8411 71.9706 35.9411 71.5506 35.9411 70.9906C35.9411 70.4406 35.8411 70.0256 35.6411 69.7456C35.4411 69.4656 35.1761 69.3256 34.8461 69.3256C34.5261 69.3256 34.2611 69.4656 34.0511 69.7456C33.8511 70.0156 33.7511 70.4306 33.7511 70.9906C33.7511 71.5506 33.8511 71.9706 34.0511 72.2506C34.2611 72.5206 34.5261 72.6556 34.8461 72.6556Z" fill="white"/>
<path d="M1.712 78.728H4.496V79.584H1.712V78.728ZM1.792 81.128H4.952V82H0.752V76.4H4.84V77.272H1.792V81.128ZM7.93631 82.056C7.48831 82.056 7.08831 81.9627 6.73631 81.776C6.38965 81.584 6.11765 81.3227 5.92031 80.992C5.72298 80.6613 5.62431 80.2853 5.62431 79.864C5.62431 79.4373 5.72298 79.0613 5.92031 78.736C6.11765 78.4053 6.38965 78.1467 6.73631 77.96C7.08831 77.7733 7.48831 77.68 7.93631 77.68C8.35231 77.68 8.71765 77.7653 9.03231 77.936C9.35231 78.1013 9.59498 78.3467 9.76031 78.672L8.99231 79.12C8.86431 78.9173 8.70698 78.768 8.52031 78.672C8.33898 78.576 8.14165 78.528 7.92831 78.528C7.68298 78.528 7.46165 78.5813 7.26431 78.688C7.06698 78.7947 6.91231 78.9493 6.80031 79.152C6.68831 79.3493 6.63231 79.5867 6.63231 79.864C6.63231 80.1413 6.68831 80.3813 6.80031 80.584C6.91231 80.7813 7.06698 80.9333 7.26431 81.04C7.46165 81.1467 7.68298 81.2 7.92831 81.2C8.14165 81.2 8.33898 81.152 8.52031 81.056C8.70698 80.96 8.86431 80.8107 8.99231 80.608L9.76031 81.056C9.59498 81.376 9.35231 81.624 9.03231 81.8C8.71765 81.9707 8.35231 82.056 7.93631 82.056ZM12.4823 82.056C12.0449 82.056 11.6556 81.9627 11.3143 81.776C10.9729 81.584 10.7036 81.3227 10.5063 80.992C10.3089 80.6613 10.2103 80.2853 10.2103 79.864C10.2103 79.4373 10.3089 79.0613 10.5063 78.736C10.7036 78.4053 10.9729 78.1467 11.3143 77.96C11.6556 77.7733 12.0449 77.68 12.4823 77.68C12.9249 77.68 13.3169 77.7733 13.6583 77.96C14.0049 78.1467 14.2743 78.4027 14.4663 78.728C14.6636 79.0533 14.7623 79.432 14.7623 79.864C14.7623 80.2853 14.6636 80.6613 14.4663 80.992C14.2743 81.3227 14.0049 81.584 13.6583 81.776C13.3169 81.9627 12.9249 82.056 12.4823 82.056ZM12.4823 81.2C12.7276 81.2 12.9463 81.1467 13.1383 81.04C13.3303 80.9333 13.4796 80.7787 13.5863 80.576C13.6983 80.3733 13.7543 80.136 13.7543 79.864C13.7543 79.5867 13.6983 79.3493 13.5863 79.152C13.4796 78.9493 13.3303 78.7947 13.1383 78.688C12.9463 78.5813 12.7303 78.528 12.4903 78.528C12.2449 78.528 12.0263 78.5813 11.8343 78.688C11.6476 78.7947 11.4983 78.9493 11.3863 79.152C11.2743 79.3493 11.2183 79.5867 11.2183 79.864C11.2183 80.136 11.2743 80.3733 11.3863 80.576C11.4983 80.7787 11.6476 80.9333 11.8343 81.04C12.0263 81.1467 12.2423 81.2 12.4823 81.2ZM17.0385 82.056C16.6812 82.056 16.3372 82.0107 16.0065 81.92C15.6812 81.824 15.4225 81.7093 15.2305 81.576L15.6145 80.816C15.8065 80.9387 16.0358 81.04 16.3025 81.12C16.5692 81.2 16.8358 81.24 17.1025 81.24C17.4172 81.24 17.6438 81.1973 17.7825 81.112C17.9265 81.0267 17.9985 80.912 17.9985 80.768C17.9985 80.6507 17.9505 80.5627 17.8545 80.504C17.7585 80.44 17.6332 80.392 17.4785 80.36C17.3238 80.328 17.1505 80.2987 16.9585 80.272C16.7718 80.2453 16.5825 80.2107 16.3905 80.168C16.2038 80.12 16.0332 80.0533 15.8785 79.968C15.7238 79.8773 15.5985 79.7573 15.5025 79.608C15.4065 79.4587 15.3585 79.2613 15.3585 79.016C15.3585 78.744 15.4358 78.5093 15.5905 78.312C15.7452 78.1093 15.9612 77.9547 16.2385 77.848C16.5212 77.736 16.8545 77.68 17.2385 77.68C17.5265 77.68 17.8172 77.712 18.1105 77.776C18.4038 77.84 18.6465 77.9307 18.8385 78.048L18.4545 78.808C18.2518 78.6853 18.0465 78.6027 17.8385 78.56C17.6358 78.512 17.4332 78.488 17.2305 78.488C16.9265 78.488 16.6998 78.5333 16.5505 78.624C16.4065 78.7147 16.3345 78.8293 16.3345 78.968C16.3345 79.096 16.3825 79.192 16.4785 79.256C16.5745 79.32 16.6998 79.3707 16.8545 79.408C17.0092 79.4453 17.1798 79.4773 17.3665 79.504C17.5585 79.5253 17.7478 79.56 17.9345 79.608C18.1212 79.656 18.2918 79.7227 18.4465 79.808C18.6065 79.888 18.7345 80.0027 18.8305 80.152C18.9265 80.3013 18.9745 80.496 18.9745 80.736C18.9745 81.0027 18.8945 81.2347 18.7345 81.432C18.5798 81.6293 18.3585 81.784 18.0705 81.896C17.7825 82.0027 17.4385 82.056 17.0385 82.056ZM20.1096 83.608C19.9016 83.608 19.6936 83.5733 19.4856 83.504C19.2776 83.4347 19.1042 83.3387 18.9656 83.216L19.3656 82.48C19.4669 82.5707 19.5816 82.6427 19.7096 82.696C19.8376 82.7493 19.9682 82.776 20.1016 82.776C20.2829 82.776 20.4296 82.7307 20.5416 82.64C20.6536 82.5493 20.7576 82.3973 20.8536 82.184L21.1016 81.624L21.1816 81.504L22.7976 77.728H23.7576L21.7576 82.344C21.6242 82.664 21.4749 82.9173 21.3096 83.104C21.1496 83.2907 20.9682 83.4213 20.7656 83.496C20.5682 83.5707 20.3496 83.608 20.1096 83.608ZM20.9896 82.152L19.0616 77.728H20.1016L21.6696 81.416L20.9896 82.152ZM25.6479 82.056C25.2905 82.056 24.9465 82.0107 24.6159 81.92C24.2905 81.824 24.0319 81.7093 23.8399 81.576L24.2239 80.816C24.4159 80.9387 24.6452 81.04 24.9119 81.12C25.1785 81.2 25.4452 81.24 25.7119 81.24C26.0265 81.24 26.2532 81.1973 26.3919 81.112C26.5359 81.0267 26.6079 80.912 26.6079 80.768C26.6079 80.6507 26.5599 80.5627 26.4639 80.504C26.3679 80.44 26.2425 80.392 26.0879 80.36C25.9332 80.328 25.7599 80.2987 25.5679 80.272C25.3812 80.2453 25.1919 80.2107 24.9999 80.168C24.8132 80.12 24.6425 80.0533 24.4879 79.968C24.3332 79.8773 24.2079 79.7573 24.1119 79.608C24.0159 79.4587 23.9679 79.2613 23.9679 79.016C23.9679 78.744 24.0452 78.5093 24.1999 78.312C24.3545 78.1093 24.5705 77.9547 24.8479 77.848C25.1305 77.736 25.4639 77.68 25.8479 77.68C26.1359 77.68 26.4265 77.712 26.7199 77.776C27.0132 77.84 27.2559 77.9307 27.4479 78.048L27.0639 78.808C26.8612 78.6853 26.6559 78.6027 26.4479 78.56C26.2452 78.512 26.0425 78.488 25.8399 78.488C25.5359 78.488 25.3092 78.5333 25.1599 78.624C25.0159 78.7147 24.9439 78.8293 24.9439 78.968C24.9439 79.096 24.9919 79.192 25.0879 79.256C25.1839 79.32 25.3092 79.3707 25.4639 79.408C25.6185 79.4453 25.7892 79.4773 25.9759 79.504C26.1679 79.5253 26.3572 79.56 26.5439 79.608C26.7305 79.656 26.9012 79.7227 27.0559 79.808C27.2159 79.888 27.3439 80.0027 27.4399 80.152C27.5359 80.3013 27.5839 80.496 27.5839 80.736C27.5839 81.0027 27.5039 81.2347 27.3439 81.432C27.1892 81.6293 26.9679 81.784 26.6799 81.896C26.3919 82.0027 26.0479 82.056 25.6479 82.056ZM30.0531 82.056C29.5837 82.056 29.2211 81.936 28.9651 81.696C28.7091 81.4507 28.5811 81.0907 28.5811 80.616V76.784H29.5811V80.592C29.5811 80.7947 29.6317 80.952 29.7331 81.064C29.8397 81.176 29.9864 81.232 30.1731 81.232C30.3971 81.232 30.5837 81.1733 30.7331 81.056L31.0131 81.768C30.8957 81.864 30.7517 81.936 30.5811 81.984C30.4104 82.032 30.2344 82.056 30.0531 82.056ZM27.8771 78.56V77.76H30.7251V78.56H27.8771ZM33.7031 82.056C33.2284 82.056 32.8124 81.9627 32.4551 81.776C32.1031 81.584 31.8284 81.3227 31.6311 80.992C31.4391 80.6613 31.3431 80.2853 31.3431 79.864C31.3431 79.4373 31.4364 79.0613 31.6231 78.736C31.8151 78.4053 32.0764 78.1467 32.4071 77.96C32.7431 77.7733 33.1244 77.68 33.5511 77.68C33.9671 77.68 34.3377 77.7707 34.6631 77.952C34.9884 78.1333 35.2444 78.3893 35.4311 78.72C35.6177 79.0507 35.7111 79.44 35.7111 79.888C35.7111 79.9307 35.7084 79.9787 35.7031 80.032C35.7031 80.0853 35.7004 80.136 35.6951 80.184H32.1351V79.52H35.1671L34.7751 79.728C34.7804 79.4827 34.7297 79.2667 34.6231 79.08C34.5164 78.8933 34.3697 78.7467 34.1831 78.64C34.0017 78.5333 33.7911 78.48 33.5511 78.48C33.3057 78.48 33.0897 78.5333 32.9031 78.64C32.7217 78.7467 32.5777 78.896 32.4711 79.088C32.3697 79.2747 32.3191 79.496 32.3191 79.752V79.912C32.3191 80.168 32.3777 80.3947 32.4951 80.592C32.6124 80.7893 32.7777 80.9413 32.9911 81.048C33.2044 81.1547 33.4497 81.208 33.7271 81.208C33.9671 81.208 34.1831 81.1707 34.3751 81.096C34.5671 81.0213 34.7377 80.904 34.8871 80.744L35.4231 81.36C35.2311 81.584 34.9884 81.7573 34.6951 81.88C34.4071 81.9973 34.0764 82.056 33.7031 82.056ZM42.0636 77.68C42.405 77.68 42.7063 77.7467 42.9676 77.88C43.2343 78.0133 43.4423 78.2187 43.5916 78.496C43.741 78.768 43.8156 79.12 43.8156 79.552V82H42.8156V79.68C42.8156 79.3013 42.733 79.0187 42.5676 78.832C42.4023 78.6453 42.165 78.552 41.8556 78.552C41.637 78.552 41.4423 78.6 41.2716 78.696C41.1063 78.792 40.9756 78.9333 40.8796 79.12C40.789 79.3067 40.7436 79.544 40.7436 79.832V82H39.7436V79.68C39.7436 79.3013 39.661 79.0187 39.4956 78.832C39.3303 78.6453 39.093 78.552 38.7836 78.552C38.565 78.552 38.3703 78.6 38.1996 78.696C38.0343 78.792 37.9036 78.9333 37.8076 79.12C37.717 79.3067 37.6716 79.544 37.6716 79.832V82H36.6716V77.728H37.6236V78.864L37.4556 78.528C37.5996 78.2507 37.8076 78.04 38.0796 77.896C38.357 77.752 38.6716 77.68 39.0236 77.68C39.4236 77.68 39.7703 77.7787 40.0636 77.976C40.3623 78.1733 40.5596 78.472 40.6556 78.872L40.2636 78.736C40.4023 78.416 40.6316 78.16 40.9516 77.968C41.2716 77.776 41.6423 77.68 42.0636 77.68Z" fill="white"/>
<path d="M59.4188 227.528V225.953L63.4688 222.128C63.7888 221.838 64.0238 221.578 64.1738 221.348C64.3238 221.118 64.4238 220.908 64.4738 220.718C64.5338 220.528 64.5638 220.353 64.5638 220.193C64.5638 219.773 64.4188 219.453 64.1288 219.233C63.8488 219.003 63.4338 218.888 62.8838 218.888C62.4438 218.888 62.0338 218.973 61.6538 219.143C61.2838 219.313 60.9688 219.578 60.7088 219.938L58.9388 218.798C59.3388 218.198 59.8988 217.723 60.6188 217.373C61.3388 217.023 62.1688 216.848 63.1088 216.848C63.8888 216.848 64.5688 216.978 65.1488 217.238C65.7388 217.488 66.1938 217.843 66.5138 218.303C66.8438 218.763 67.0088 219.313 67.0088 219.953C67.0088 220.293 66.9638 220.633 66.8738 220.973C66.7938 221.303 66.6238 221.653 66.3638 222.023C66.1138 222.393 65.7438 222.808 65.2538 223.268L61.8938 226.433L61.4288 225.548H67.3538V227.528H59.4188ZM71.9265 227.708C71.1965 227.708 70.4715 227.613 69.7515 227.423C69.0415 227.223 68.4315 226.943 67.9215 226.583L68.8815 224.723C69.2815 225.013 69.7415 225.243 70.2615 225.413C70.7915 225.583 71.3265 225.668 71.8665 225.668C72.4765 225.668 72.9565 225.548 73.3065 225.308C73.6565 225.068 73.8315 224.733 73.8315 224.303C73.8315 224.033 73.7615 223.793 73.6215 223.583C73.4815 223.373 73.2315 223.213 72.8715 223.103C72.5215 222.993 72.0265 222.938 71.3865 222.938H68.7015L69.2415 217.028H75.6465V218.978H70.1115L71.3715 217.868L70.9965 222.083L69.7365 220.973H71.9565C72.9965 220.973 73.8315 221.118 74.4615 221.408C75.1015 221.688 75.5665 222.073 75.8565 222.563C76.1465 223.053 76.2915 223.608 76.2915 224.228C76.2915 224.848 76.1365 225.423 75.8265 225.953C75.5165 226.473 75.0365 226.898 74.3865 227.228C73.7465 227.548 72.9265 227.708 71.9265 227.708ZM78.6459 227.528L85.8159 217.028H87.6009L80.4309 227.528H78.6459ZM79.5609 222.698C79.0509 222.698 78.6009 222.583 78.2109 222.353C77.8209 222.113 77.5109 221.778 77.2809 221.348C77.0609 220.908 76.9509 220.393 76.9509 219.803C76.9509 219.213 77.0609 218.703 77.2809 218.273C77.5109 217.843 77.8209 217.508 78.2109 217.268C78.6009 217.028 79.0509 216.908 79.5609 216.908C80.0709 216.908 80.5209 217.028 80.9109 217.268C81.3009 217.508 81.6059 217.843 81.8259 218.273C82.0459 218.703 82.1559 219.213 82.1559 219.803C82.1559 220.393 82.0459 220.908 81.8259 221.348C81.6059 221.778 81.3009 222.113 80.9109 222.353C80.5209 222.583 80.0709 222.698 79.5609 222.698ZM79.5609 221.468C79.8909 221.468 80.1559 221.333 80.3559 221.063C80.5559 220.783 80.6559 220.363 80.6559 219.803C80.6559 219.243 80.5559 218.828 80.3559 218.558C80.1559 218.278 79.8909 218.138 79.5609 218.138C79.2409 218.138 78.9759 218.278 78.7659 218.558C78.5659 218.828 78.4659 219.243 78.4659 219.803C78.4659 220.353 78.5659 220.768 78.7659 221.048C78.9759 221.328 79.2409 221.468 79.5609 221.468ZM86.6859 227.648C86.1859 227.648 85.7359 227.533 85.3359 227.303C84.9459 227.063 84.6409 226.728 84.4209 226.298C84.2009 225.858 84.0909 225.343 84.0909 224.753C84.0909 224.163 84.2009 223.653 84.4209 223.223C84.6409 222.793 84.9459 222.458 85.3359 222.218C85.7359 221.978 86.1859 221.858 86.6859 221.858C87.2059 221.858 87.6609 221.978 88.0509 222.218C88.4409 222.458 88.7459 222.793 88.9659 223.223C89.1859 223.653 89.2959 224.163 89.2959 224.753C89.2959 225.343 89.1859 225.858 88.9659 226.298C88.7459 226.728 88.4409 227.063 88.0509 227.303C87.6609 227.533 87.2059 227.648 86.6859 227.648ZM86.6859 226.418C87.0159 226.418 87.2809 226.283 87.4809 226.013C87.6809 225.733 87.7809 225.313 87.7809 224.753C87.7809 224.203 87.6809 223.788 87.4809 223.508C87.2809 223.228 87.0159 223.088 86.6859 223.088C86.3659 223.088 86.1009 223.228 85.8909 223.508C85.6909 223.778 85.5909 224.193 85.5909 224.753C85.5909 225.313 85.6909 225.733 85.8909 226.013C86.1009 226.283 86.3659 226.418 86.6859 226.418Z" fill="white"/>
<path d="M54.752 236V230.4H57.056C57.552 230.4 57.976 230.48 58.328 230.64C58.6853 230.8 58.96 231.029 59.152 231.328C59.344 231.627 59.44 231.981 59.44 232.392C59.44 232.803 59.344 233.157 59.152 233.456C58.96 233.749 58.6853 233.976 58.328 234.136C57.976 234.291 57.552 234.368 57.056 234.368H55.328L55.792 233.896V236H54.752ZM58.416 236L57 233.968H58.112L59.536 236H58.416ZM55.792 234.008L55.328 233.512H57.008C57.4667 233.512 57.8107 233.413 58.04 233.216C58.2747 233.019 58.392 232.744 58.392 232.392C58.392 232.035 58.2747 231.76 58.04 231.568C57.8107 231.376 57.4667 231.28 57.008 231.28H55.328L55.792 230.768V234.008ZM62.5156 236.056C62.0409 236.056 61.6249 235.963 61.2676 235.776C60.9156 235.584 60.6409 235.323 60.4436 234.992C60.2516 234.661 60.1556 234.285 60.1556 233.864C60.1556 233.437 60.2489 233.061 60.4356 232.736C60.6276 232.405 60.8889 232.147 61.2196 231.96C61.5556 231.773 61.9369 231.68 62.3636 231.68C62.7796 231.68 63.1502 231.771 63.4756 231.952C63.8009 232.133 64.0569 232.389 64.2436 232.72C64.4302 233.051 64.5236 233.44 64.5236 233.888C64.5236 233.931 64.5209 233.979 64.5156 234.032C64.5156 234.085 64.5129 234.136 64.5076 234.184H60.9476V233.52H63.9796L63.5876 233.728C63.5929 233.483 63.5422 233.267 63.4356 233.08C63.3289 232.893 63.1822 232.747 62.9956 232.64C62.8142 232.533 62.6036 232.48 62.3636 232.48C62.1182 232.48 61.9022 232.533 61.7156 232.64C61.5342 232.747 61.3902 232.896 61.2836 233.088C61.1822 233.275 61.1316 233.496 61.1316 233.752V233.912C61.1316 234.168 61.1902 234.395 61.3076 234.592C61.4249 234.789 61.5902 234.941 61.8036 235.048C62.0169 235.155 62.2622 235.208 62.5396 235.208C62.7796 235.208 62.9956 235.171 63.1876 235.096C63.3796 235.021 63.5502 234.904 63.6996 234.744L64.2356 235.36C64.0436 235.584 63.8009 235.757 63.5076 235.88C63.2196 235.997 62.8889 236.056 62.5156 236.056ZM66.8041 236.056C66.4468 236.056 66.1028 236.011 65.7721 235.92C65.4468 235.824 65.1881 235.709 64.9961 235.576L65.3801 234.816C65.5721 234.939 65.8015 235.04 66.0681 235.12C66.3348 235.2 66.6015 235.24 66.8681 235.24C67.1828 235.24 67.4095 235.197 67.5481 235.112C67.6921 235.027 67.7641 234.912 67.7641 234.768C67.7641 234.651 67.7161 234.563 67.6201 234.504C67.5241 234.44 67.3988 234.392 67.2441 234.36C67.0895 234.328 66.9161 234.299 66.7241 234.272C66.5375 234.245 66.3481 234.211 66.1561 234.168C65.9695 234.12 65.7988 234.053 65.6441 233.968C65.4895 233.877 65.3641 233.757 65.2681 233.608C65.1721 233.459 65.1241 233.261 65.1241 233.016C65.1241 232.744 65.2015 232.509 65.3561 232.312C65.5108 232.109 65.7268 231.955 66.0041 231.848C66.2868 231.736 66.6201 231.68 67.0041 231.68C67.2921 231.68 67.5828 231.712 67.8761 231.776C68.1695 231.84 68.4121 231.931 68.6041 232.048L68.2201 232.808C68.0175 232.685 67.8121 232.603 67.6041 232.56C67.4015 232.512 67.1988 232.488 66.9961 232.488C66.6921 232.488 66.4655 232.533 66.3161 232.624C66.1721 232.715 66.1001 232.829 66.1001 232.968C66.1001 233.096 66.1481 233.192 66.2441 233.256C66.3401 233.32 66.4655 233.371 66.6201 233.408C66.7748 233.445 66.9455 233.477 67.1321 233.504C67.3241 233.525 67.5135 233.56 67.7001 233.608C67.8868 233.656 68.0575 233.723 68.2121 233.808C68.3721 233.888 68.5001 234.003 68.5961 234.152C68.6921 234.301 68.7401 234.496 68.7401 234.736C68.7401 235.003 68.6601 235.235 68.5001 235.432C68.3455 235.629 68.1241 235.784 67.8361 235.896C67.5481 236.003 67.2041 236.056 66.8041 236.056ZM71.6093 236.056C71.1346 236.056 70.7186 235.963 70.3613 235.776C70.0093 235.584 69.7346 235.323 69.5373 234.992C69.3453 234.661 69.2493 234.285 69.2493 233.864C69.2493 233.437 69.3426 233.061 69.5293 232.736C69.7213 232.405 69.9826 232.147 70.3133 231.96C70.6493 231.773 71.0306 231.68 71.4573 231.68C71.8733 231.68 72.244 231.771 72.5693 231.952C72.8946 232.133 73.1506 232.389 73.3373 232.72C73.524 233.051 73.6173 233.44 73.6173 233.888C73.6173 233.931 73.6146 233.979 73.6093 234.032C73.6093 234.085 73.6066 234.136 73.6013 234.184H70.0413V233.52H73.0733L72.6813 233.728C72.6866 233.483 72.636 233.267 72.5293 233.08C72.4226 232.893 72.276 232.747 72.0893 232.64C71.908 232.533 71.6973 232.48 71.4573 232.48C71.212 232.48 70.996 232.533 70.8093 232.64C70.628 232.747 70.484 232.896 70.3773 233.088C70.276 233.275 70.2253 233.496 70.2253 233.752V233.912C70.2253 234.168 70.284 234.395 70.4013 234.592C70.5186 234.789 70.684 234.941 70.8973 235.048C71.1106 235.155 71.356 235.208 71.6333 235.208C71.8733 235.208 72.0893 235.171 72.2813 235.096C72.4733 235.021 72.644 234.904 72.7933 234.744L73.3293 235.36C73.1373 235.584 72.8946 235.757 72.6013 235.88C72.3133 235.997 71.9826 236.056 71.6093 236.056ZM74.5779 236V231.728H75.5299V232.904L75.4179 232.56C75.5459 232.272 75.7459 232.053 76.0179 231.904C76.2952 231.755 76.6392 231.68 77.0499 231.68V232.632C77.0072 232.621 76.9672 232.616 76.9299 232.616C76.8925 232.611 76.8552 232.608 76.8179 232.608C76.4392 232.608 76.1379 232.72 75.9139 232.944C75.6899 233.163 75.5779 233.491 75.5779 233.928V236H74.5779ZM79.1904 236L77.3584 231.728H78.3984L79.9744 235.496H79.4624L81.0944 231.728H82.0544L80.2224 236H79.1904ZM84.5703 236.056C84.0956 236.056 83.6796 235.963 83.3223 235.776C82.9703 235.584 82.6956 235.323 82.4983 234.992C82.3063 234.661 82.2103 234.285 82.2103 233.864C82.2103 233.437 82.3036 233.061 82.4903 232.736C82.6823 232.405 82.9436 232.147 83.2743 231.96C83.6103 231.773 83.9916 231.68 84.4183 231.68C84.8343 231.68 85.2049 231.771 85.5303 231.952C85.8556 232.133 86.1116 232.389 86.2983 232.72C86.4849 233.051 86.5783 233.44 86.5783 233.888C86.5783 233.931 86.5756 233.979 86.5703 234.032C86.5703 234.085 86.5676 234.136 86.5623 234.184H83.0023V233.52H86.0343L85.6423 233.728C85.6476 233.483 85.5969 233.267 85.4903 233.08C85.3836 232.893 85.2369 232.747 85.0503 232.64C84.8689 232.533 84.6583 232.48 84.4183 232.48C84.1729 232.48 83.9569 232.533 83.7703 232.64C83.5889 232.747 83.4449 232.896 83.3383 233.088C83.2369 233.275 83.1863 233.496 83.1863 233.752V233.912C83.1863 234.168 83.2449 234.395 83.3623 234.592C83.4796 234.789 83.6449 234.941 83.8583 235.048C84.0716 235.155 84.3169 235.208 84.5943 235.208C84.8343 235.208 85.0503 235.171 85.2423 235.096C85.4343 235.021 85.6049 234.904 85.7543 234.744L86.2903 235.36C86.0983 235.584 85.8556 235.757 85.5623 235.88C85.2743 235.997 84.9436 236.056 84.5703 236.056ZM89.3468 236.056C88.9361 236.056 88.5655 235.965 88.2348 235.784C87.9095 235.597 87.6535 235.341 87.4668 235.016C87.2801 234.691 87.1868 234.307 87.1868 233.864C87.1868 233.421 87.2801 233.037 87.4668 232.712C87.6535 232.387 87.9095 232.133 88.2348 231.952C88.5655 231.771 88.9361 231.68 89.3468 231.68C89.7041 231.68 90.0241 231.76 90.3068 231.92C90.5895 232.075 90.8135 232.312 90.9788 232.632C91.1441 232.952 91.2268 233.363 91.2268 233.864C91.2268 234.36 91.1468 234.771 90.9868 235.096C90.8268 235.416 90.6055 235.656 90.3228 235.816C90.0401 235.976 89.7148 236.056 89.3468 236.056ZM89.4668 235.2C89.7068 235.2 89.9201 235.147 90.1068 235.04C90.2988 234.933 90.4508 234.779 90.5628 234.576C90.6801 234.373 90.7388 234.136 90.7388 233.864C90.7388 233.587 90.6801 233.349 90.5628 233.152C90.4508 232.949 90.2988 232.795 90.1068 232.688C89.9201 232.581 89.7068 232.528 89.4668 232.528C89.2268 232.528 89.0108 232.581 88.8188 232.688C88.6321 232.795 88.4801 232.949 88.3628 233.152C88.2508 233.349 88.1948 233.587 88.1948 233.864C88.1948 234.136 88.2508 234.373 88.3628 234.576C88.4801 234.779 88.6321 234.933 88.8188 235.04C89.0108 235.147 89.2268 235.2 89.4668 235.2ZM90.7628 236V234.992L90.8028 233.856L90.7228 232.72V230.064H91.7148V236H90.7628Z" fill="white"/>
<path d="M265.04 62.1602L269.27 52.5902L269.9 53.6402H264.245L265.325 52.5002V55.3502H263.165V51.6602H271.58V53.2352L267.68 62.1602H265.04ZM273.324 62.2802C272.924 62.2802 272.579 62.1452 272.289 61.8752C272.009 61.5952 271.869 61.2402 271.869 60.8102C271.869 60.3802 272.009 60.0352 272.289 59.7752C272.579 59.5052 272.924 59.3702 273.324 59.3702C273.734 59.3702 274.079 59.5052 274.359 59.7752C274.639 60.0352 274.779 60.3802 274.779 60.8102C274.779 61.2402 274.639 61.5952 274.359 61.8752C274.079 62.1452 273.734 62.2802 273.324 62.2802ZM275.75 59.9552V58.3202L280.7 51.6602H283.25L278.405 58.3202L277.22 57.9752H285.485V59.9552H275.75ZM281.405 62.1602V59.9552L281.48 57.9752V56.0102H283.775V62.1602H281.405ZM287.273 62.1602L294.443 51.6602H296.228L289.058 62.1602H287.273ZM288.188 57.3302C287.678 57.3302 287.228 57.2152 286.838 56.9852C286.448 56.7452 286.138 56.4102 285.908 55.9802C285.688 55.5402 285.578 55.0252 285.578 54.4352C285.578 53.8452 285.688 53.3352 285.908 52.9052C286.138 52.4752 286.448 52.1402 286.838 51.9002C287.228 51.6602 287.678 51.5402 288.188 51.5402C288.698 51.5402 289.148 51.6602 289.538 51.9002C289.928 52.1402 290.233 52.4752 290.453 52.9052C290.673 53.3352 290.783 53.8452 290.783 54.4352C290.783 55.0252 290.673 55.5402 290.453 55.9802C290.233 56.4102 289.928 56.7452 289.538 56.9852C289.148 57.2152 288.698 57.3302 288.188 57.3302ZM288.188 56.1002C288.518 56.1002 288.783 55.9652 288.983 55.6952C289.183 55.4152 289.283 54.9952 289.283 54.4352C289.283 53.8752 289.183 53.4602 288.983 53.1902C288.783 52.9102 288.518 52.7702 288.188 52.7702C287.868 52.7702 287.603 52.9102 287.393 53.1902C287.193 53.4602 287.093 53.8752 287.093 54.4352C287.093 54.9852 287.193 55.4002 287.393 55.6802C287.603 55.9602 287.868 56.1002 288.188 56.1002ZM295.313 62.2802C294.813 62.2802 294.363 62.1652 293.963 61.9352C293.573 61.6952 293.268 61.3602 293.048 60.9302C292.828 60.4902 292.718 59.9752 292.718 59.3852C292.718 58.7952 292.828 58.2852 293.048 57.8552C293.268 57.4252 293.573 57.0902 293.963 56.8502C294.363 56.6102 294.813 56.4902 295.313 56.4902C295.833 56.4902 296.288 56.6102 296.678 56.8502C297.068 57.0902 297.373 57.4252 297.593 57.8552C297.813 58.2852 297.923 58.7952 297.923 59.3852C297.923 59.9752 297.813 60.4902 297.593 60.9302C297.373 61.3602 297.068 61.6952 296.678 61.9352C296.288 62.1652 295.833 62.2802 295.313 62.2802ZM295.313 61.0502C295.643 61.0502 295.908 60.9152 296.108 60.6452C296.308 60.3652 296.408 59.9452 296.408 59.3852C296.408 58.8352 296.308 58.4202 296.108 58.1402C295.908 57.8602 295.643 57.7202 295.313 57.7202C294.993 57.7202 294.728 57.8602 294.518 58.1402C294.318 58.4102 294.218 58.8252 294.218 59.3852C294.218 59.9452 294.318 60.3652 294.518 60.6452C294.728 60.9152 294.993 61.0502 295.313 61.0502Z" fill="white"/>
<path d="M260.488 71.08C260.051 71.08 259.632 71.0187 259.232 70.896C258.832 70.768 258.515 70.6053 258.28 70.408L258.64 69.6C258.864 69.776 259.141 69.9227 259.472 70.04C259.803 70.1573 260.141 70.216 260.488 70.216C260.781 70.216 261.019 70.184 261.2 70.12C261.381 70.056 261.515 69.9707 261.6 69.864C261.685 69.752 261.728 69.6267 261.728 69.488C261.728 69.3173 261.667 69.1813 261.544 69.08C261.421 68.9733 261.261 68.8907 261.064 68.832C260.872 68.768 260.656 68.7093 260.416 68.656C260.181 68.6027 259.944 68.5413 259.704 68.472C259.469 68.3973 259.253 68.304 259.056 68.192C258.864 68.0747 258.707 67.92 258.584 67.728C258.461 67.536 258.4 67.2907 258.4 66.992C258.4 66.688 258.48 66.4107 258.64 66.16C258.805 65.904 259.053 65.7013 259.384 65.552C259.72 65.3973 260.144 65.32 260.656 65.32C260.992 65.32 261.325 65.3627 261.656 65.448C261.987 65.5333 262.275 65.656 262.52 65.816L262.192 66.624C261.941 66.4747 261.683 66.3653 261.416 66.296C261.149 66.2213 260.893 66.184 260.648 66.184C260.36 66.184 260.125 66.2187 259.944 66.288C259.768 66.3573 259.637 66.448 259.552 66.56C259.472 66.672 259.432 66.8 259.432 66.944C259.432 67.1147 259.491 67.2533 259.608 67.36C259.731 67.4613 259.888 67.5413 260.08 67.6C260.277 67.6587 260.496 67.7173 260.736 67.776C260.976 67.8293 261.213 67.8907 261.448 67.96C261.688 68.0293 261.904 68.12 262.096 68.232C262.293 68.344 262.451 68.496 262.568 68.688C262.691 68.88 262.752 69.1227 262.752 69.416C262.752 69.7147 262.669 69.992 262.504 70.248C262.344 70.4987 262.096 70.7013 261.76 70.856C261.424 71.0053 261 71.08 260.488 71.08ZM265.695 71.056C265.221 71.056 264.805 70.9627 264.447 70.776C264.095 70.584 263.821 70.3227 263.623 69.992C263.431 69.6613 263.335 69.2853 263.335 68.864C263.335 68.4373 263.429 68.0613 263.615 67.736C263.807 67.4053 264.069 67.1467 264.399 66.96C264.735 66.7733 265.117 66.68 265.543 66.68C265.959 66.68 266.33 66.7707 266.655 66.952C266.981 67.1333 267.237 67.3893 267.423 67.72C267.61 68.0507 267.703 68.44 267.703 68.888C267.703 68.9307 267.701 68.9787 267.695 69.032C267.695 69.0853 267.693 69.136 267.687 69.184H264.127V68.52H267.159L266.767 68.728C266.773 68.4827 266.722 68.2667 266.615 68.08C266.509 67.8933 266.362 67.7467 266.175 67.64C265.994 67.5333 265.783 67.48 265.543 67.48C265.298 67.48 265.082 67.5333 264.895 67.64C264.714 67.7467 264.57 67.896 264.463 68.088C264.362 68.2747 264.311 68.496 264.311 68.752V68.912C264.311 69.168 264.37 69.3947 264.487 69.592C264.605 69.7893 264.77 69.9413 264.983 70.048C265.197 70.1547 265.442 70.208 265.719 70.208C265.959 70.208 266.175 70.1707 266.367 70.096C266.559 70.0213 266.73 69.904 266.879 69.744L267.415 70.36C267.223 70.584 266.981 70.7573 266.687 70.88C266.399 70.9973 266.069 71.056 265.695 71.056ZM270.672 71.056C270.197 71.056 269.781 70.9627 269.424 70.776C269.072 70.584 268.797 70.3227 268.6 69.992C268.408 69.6613 268.312 69.2853 268.312 68.864C268.312 68.4373 268.405 68.0613 268.592 67.736C268.784 67.4053 269.045 67.1467 269.376 66.96C269.712 66.7733 270.093 66.68 270.52 66.68C270.936 66.68 271.306 66.7707 271.632 66.952C271.957 67.1333 272.213 67.3893 272.4 67.72C272.586 68.0507 272.68 68.44 272.68 68.888C272.68 68.9307 272.677 68.9787 272.672 69.032C272.672 69.0853 272.669 69.136 272.664 69.184H269.104V68.52H272.136L271.744 68.728C271.749 68.4827 271.698 68.2667 271.592 68.08C271.485 67.8933 271.338 67.7467 271.152 67.64C270.97 67.5333 270.76 67.48 270.52 67.48C270.274 67.48 270.058 67.5333 269.872 67.64C269.69 67.7467 269.546 67.896 269.44 68.088C269.338 68.2747 269.288 68.496 269.288 68.752V68.912C269.288 69.168 269.346 69.3947 269.464 69.592C269.581 69.7893 269.746 69.9413 269.96 70.048C270.173 70.1547 270.418 70.208 270.696 70.208C270.936 70.208 271.152 70.1707 271.344 70.096C271.536 70.0213 271.706 69.904 271.856 69.744L272.392 70.36C272.2 70.584 271.957 70.7573 271.664 70.88C271.376 70.9973 271.045 71.056 270.672 71.056ZM275.448 71.056C275.038 71.056 274.667 70.9653 274.336 70.784C274.011 70.5973 273.755 70.3413 273.568 70.016C273.382 69.6907 273.288 69.3067 273.288 68.864C273.288 68.4213 273.382 68.0373 273.568 67.712C273.755 67.3867 274.011 67.1333 274.336 66.952C274.667 66.7707 275.038 66.68 275.448 66.68C275.806 66.68 276.126 66.76 276.408 66.92C276.691 67.0747 276.915 67.312 277.08 67.632C277.246 67.952 277.328 68.3627 277.328 68.864C277.328 69.36 277.248 69.7707 277.088 70.096C276.928 70.416 276.707 70.656 276.424 70.816C276.142 70.976 275.816 71.056 275.448 71.056ZM275.568 70.2C275.808 70.2 276.022 70.1467 276.208 70.04C276.4 69.9333 276.552 69.7787 276.664 69.576C276.782 69.3733 276.84 69.136 276.84 68.864C276.84 68.5867 276.782 68.3493 276.664 68.152C276.552 67.9493 276.4 67.7947 276.208 67.688C276.022 67.5813 275.808 67.528 275.568 67.528C275.328 67.528 275.112 67.5813 274.92 67.688C274.734 67.7947 274.582 67.9493 274.464 68.152C274.352 68.3493 274.296 68.5867 274.296 68.864C274.296 69.136 274.352 69.3733 274.464 69.576C274.582 69.7787 274.734 69.9333 274.92 70.04C275.112 70.1467 275.328 70.2 275.568 70.2ZM276.864 71V69.992L276.904 68.856L276.824 67.72V65.064H277.816V71H276.864ZM279.133 71V66.728H280.085V67.904L279.973 67.56C280.101 67.272 280.301 67.0533 280.573 66.904C280.85 66.7547 281.194 66.68 281.605 66.68V67.632C281.562 67.6213 281.522 67.616 281.485 67.616C281.447 67.6107 281.41 67.608 281.373 67.608C280.994 67.608 280.693 67.72 280.469 67.944C280.245 68.1627 280.133 68.4907 280.133 68.928V71H279.133ZM284.334 71.056C283.896 71.056 283.507 70.9627 283.166 70.776C282.824 70.584 282.555 70.3227 282.358 69.992C282.16 69.6613 282.062 69.2853 282.062 68.864C282.062 68.4373 282.16 68.0613 282.358 67.736C282.555 67.4053 282.824 67.1467 283.166 66.96C283.507 66.7733 283.896 66.68 284.334 66.68C284.776 66.68 285.168 66.7733 285.51 66.96C285.856 67.1467 286.126 67.4027 286.318 67.728C286.515 68.0533 286.614 68.432 286.614 68.864C286.614 69.2853 286.515 69.6613 286.318 69.992C286.126 70.3227 285.856 70.584 285.51 70.776C285.168 70.9627 284.776 71.056 284.334 71.056ZM284.334 70.2C284.579 70.2 284.798 70.1467 284.99 70.04C285.182 69.9333 285.331 69.7787 285.438 69.576C285.55 69.3733 285.606 69.136 285.606 68.864C285.606 68.5867 285.55 68.3493 285.438 68.152C285.331 67.9493 285.182 67.7947 284.99 67.688C284.798 67.5813 284.582 67.528 284.342 67.528C284.096 67.528 283.878 67.5813 283.686 67.688C283.499 67.7947 283.35 67.9493 283.238 68.152C283.126 68.3493 283.07 68.5867 283.07 68.864C283.07 69.136 283.126 69.3733 283.238 69.576C283.35 69.7787 283.499 69.9333 283.686 70.04C283.878 70.1467 284.094 70.2 284.334 70.2ZM289.378 71.056C289.015 71.056 288.695 70.9893 288.418 70.856C288.141 70.7173 287.925 70.5093 287.77 70.232C287.615 69.9493 287.538 69.5947 287.538 69.168V66.728H288.538V69.032C288.538 69.416 288.623 69.704 288.794 69.896C288.97 70.0827 289.218 70.176 289.538 70.176C289.773 70.176 289.975 70.128 290.146 70.032C290.322 69.936 290.458 69.792 290.554 69.6C290.655 69.408 290.706 69.1707 290.706 68.888V66.728H291.706V71H290.754V69.848L290.922 70.2C290.778 70.4773 290.567 70.6907 290.29 70.84C290.013 70.984 289.709 71.056 289.378 71.056ZM295.439 66.68C295.781 66.68 296.085 66.7467 296.351 66.88C296.623 67.0133 296.837 67.2187 296.991 67.496C297.146 67.768 297.223 68.12 297.223 68.552V71H296.223V68.68C296.223 68.3013 296.133 68.0187 295.951 67.832C295.775 67.6453 295.527 67.552 295.207 67.552C294.973 67.552 294.765 67.6 294.583 67.696C294.402 67.792 294.261 67.936 294.159 68.128C294.063 68.3147 294.015 68.552 294.015 68.84V71H293.015V66.728H293.967V67.88L293.799 67.528C293.949 67.256 294.165 67.048 294.447 66.904C294.735 66.7547 295.066 66.68 295.439 66.68ZM300.308 71.056C299.897 71.056 299.526 70.9653 299.196 70.784C298.87 70.5973 298.614 70.3413 298.428 70.016C298.241 69.6907 298.148 69.3067 298.148 68.864C298.148 68.4213 298.241 68.0373 298.428 67.712C298.614 67.3867 298.87 67.1333 299.196 66.952C299.526 66.7707 299.897 66.68 300.308 66.68C300.665 66.68 300.985 66.76 301.268 66.92C301.55 67.0747 301.774 67.312 301.94 67.632C302.105 67.952 302.188 68.3627 302.188 68.864C302.188 69.36 302.108 69.7707 301.948 70.096C301.788 70.416 301.566 70.656 301.284 70.816C301.001 70.976 300.676 71.056 300.308 71.056ZM300.428 70.2C300.668 70.2 300.881 70.1467 301.068 70.04C301.26 69.9333 301.412 69.7787 301.524 69.576C301.641 69.3733 301.7 69.136 301.7 68.864C301.7 68.5867 301.641 68.3493 301.524 68.152C301.412 67.9493 301.26 67.7947 301.068 67.688C300.881 67.5813 300.668 67.528 300.428 67.528C300.188 67.528 299.972 67.5813 299.78 67.688C299.593 67.7947 299.441 67.9493 299.324 68.152C299.212 68.3493 299.156 68.5867 299.156 68.864C299.156 69.136 299.212 69.3733 299.324 69.576C299.441 69.7787 299.593 69.9333 299.78 70.04C299.972 70.1467 300.188 70.2 300.428 70.2ZM301.724 71V69.992L301.764 68.856L301.684 67.72V65.064H302.676V71H301.724Z" fill="white"/>
<path d="M238.751 35.0511C237.791 35.0511 236.956 34.8511 236.246 34.4511C235.546 34.0511 235.006 33.4661 234.626 32.6961C234.246 31.9261 234.056 30.9761 234.056 29.8461C234.056 28.6361 234.281 27.6111 234.731 26.7711C235.191 25.9311 235.821 25.2911 236.621 24.8511C237.431 24.4111 238.361 24.1911 239.411 24.1911C239.971 24.1911 240.506 24.2511 241.016 24.3711C241.526 24.4911 241.966 24.6711 242.336 24.9111L241.436 26.6961C241.146 26.4961 240.836 26.3611 240.506 26.2911C240.176 26.2111 239.831 26.1711 239.471 26.1711C238.561 26.1711 237.841 26.4461 237.311 26.9961C236.781 27.5461 236.516 28.3611 236.516 29.4411C236.516 29.6211 236.516 29.8211 236.516 30.0411C236.526 30.2611 236.556 30.4811 236.606 30.7011L235.931 30.0711C236.121 29.6811 236.366 29.3561 236.666 29.0961C236.966 28.8261 237.321 28.6261 237.731 28.4961C238.151 28.3561 238.611 28.2861 239.111 28.2861C239.791 28.2861 240.401 28.4211 240.941 28.6911C241.481 28.9611 241.911 29.3411 242.231 29.8311C242.561 30.3211 242.726 30.8961 242.726 31.5561C242.726 32.2661 242.546 32.8861 242.186 33.4161C241.836 33.9361 241.361 34.3411 240.761 34.6311C240.171 34.9111 239.501 35.0511 238.751 35.0511ZM238.616 33.2361C238.956 33.2361 239.256 33.1761 239.516 33.0561C239.786 32.9261 239.996 32.7411 240.146 32.5011C240.296 32.2611 240.371 31.9861 240.371 31.6761C240.371 31.1961 240.206 30.8161 239.876 30.5361C239.556 30.2461 239.126 30.1011 238.586 30.1011C238.226 30.1011 237.911 30.1711 237.641 30.3111C237.371 30.4411 237.156 30.6261 236.996 30.8661C236.846 31.0961 236.771 31.3661 236.771 31.6761C236.771 31.9761 236.846 32.2461 236.996 32.4861C237.146 32.7161 237.356 32.9011 237.626 33.0411C237.896 33.1711 238.226 33.2361 238.616 33.2361ZM245.133 34.9911C244.733 34.9911 244.388 34.8561 244.098 34.5861C243.818 34.3061 243.678 33.9511 243.678 33.5211C243.678 33.0911 243.818 32.7461 244.098 32.4861C244.388 32.2161 244.733 32.0811 245.133 32.0811C245.543 32.0811 245.888 32.2161 246.168 32.4861C246.448 32.7461 246.588 33.0911 246.588 33.5211C246.588 33.9511 246.448 34.3061 246.168 34.5861C245.888 34.8561 245.543 34.9911 245.133 34.9911ZM252.183 35.0511C251.223 35.0511 250.388 34.8511 249.678 34.4511C248.978 34.0511 248.438 33.4661 248.058 32.6961C247.678 31.9261 247.488 30.9761 247.488 29.8461C247.488 28.6361 247.713 27.6111 248.163 26.7711C248.623 25.9311 249.253 25.2911 250.053 24.8511C250.863 24.4111 251.793 24.1911 252.843 24.1911C253.403 24.1911 253.938 24.2511 254.448 24.3711C254.958 24.4911 255.398 24.6711 255.768 24.9111L254.868 26.6961C254.578 26.4961 254.268 26.3611 253.938 26.2911C253.608 26.2111 253.263 26.1711 252.903 26.1711C251.993 26.1711 251.273 26.4461 250.743 26.9961C250.213 27.5461 249.948 28.3611 249.948 29.4411C249.948 29.6211 249.948 29.8211 249.948 30.0411C249.958 30.2611 249.988 30.4811 250.038 30.7011L249.363 30.0711C249.553 29.6811 249.798 29.3561 250.098 29.0961C250.398 28.8261 250.753 28.6261 251.163 28.4961C251.583 28.3561 252.043 28.2861 252.543 28.2861C253.223 28.2861 253.833 28.4211 254.373 28.6911C254.913 28.9611 255.343 29.3411 255.663 29.8311C255.993 30.3211 256.158 30.8961 256.158 31.5561C256.158 32.2661 255.978 32.8861 255.618 33.4161C255.268 33.9361 254.793 34.3411 254.193 34.6311C253.603 34.9111 252.933 35.0511 252.183 35.0511ZM252.048 33.2361C252.388 33.2361 252.688 33.1761 252.948 33.0561C253.218 32.9261 253.428 32.7411 253.578 32.5011C253.728 32.2611 253.803 31.9861 253.803 31.6761C253.803 31.1961 253.638 30.8161 253.308 30.5361C252.988 30.2461 252.558 30.1011 252.018 30.1011C251.658 30.1011 251.343 30.1711 251.073 30.3111C250.803 30.4411 250.588 30.6261 250.428 30.8661C250.278 31.0961 250.203 31.3661 250.203 31.6761C250.203 31.9761 250.278 32.2461 250.428 32.4861C250.578 32.7161 250.788 32.9011 251.058 33.0411C251.328 33.1711 251.658 33.2361 252.048 33.2361ZM258.261 34.8711L265.431 24.3711H267.216L260.046 34.8711H258.261ZM259.176 30.0411C258.666 30.0411 258.216 29.9261 257.826 29.6961C257.436 29.4561 257.126 29.1211 256.896 28.6911C256.676 28.2511 256.566 27.7361 256.566 27.1461C256.566 26.5561 256.676 26.0461 256.896 25.6161C257.126 25.1861 257.436 24.8511 257.826 24.6111C258.216 24.3711 258.666 24.2511 259.176 24.2511C259.686 24.2511 260.136 24.3711 260.526 24.6111C260.916 24.8511 261.221 25.1861 261.441 25.6161C261.661 26.0461 261.771 26.5561 261.771 27.1461C261.771 27.7361 261.661 28.2511 261.441 28.6911C261.221 29.1211 260.916 29.4561 260.526 29.6961C260.136 29.9261 259.686 30.0411 259.176 30.0411ZM259.176 28.8111C259.506 28.8111 259.771 28.6761 259.971 28.4061C260.171 28.1261 260.271 27.7061 260.271 27.1461C260.271 26.5861 260.171 26.1711 259.971 25.9011C259.771 25.6211 259.506 25.4811 259.176 25.4811C258.856 25.4811 258.591 25.6211 258.381 25.9011C258.181 26.1711 258.081 26.5861 258.081 27.1461C258.081 27.6961 258.181 28.1111 258.381 28.3911C258.591 28.6711 258.856 28.8111 259.176 28.8111ZM266.301 34.9911C265.801 34.9911 265.351 34.8761 264.951 34.6461C264.561 34.4061 264.256 34.0711 264.036 33.6411C263.816 33.2011 263.706 32.6861 263.706 32.0961C263.706 31.5061 263.816 30.9961 264.036 30.5661C264.256 30.1361 264.561 29.8011 264.951 29.5611C265.351 29.3211 265.801 29.2011 266.301 29.2011C266.821 29.2011 267.276 29.3211 267.666 29.5611C268.056 29.8011 268.361 30.1361 268.581 30.5661C268.801 30.9961 268.911 31.5061 268.911 32.0961C268.911 32.6861 268.801 33.2011 268.581 33.6411C268.361 34.0711 268.056 34.4061 267.666 34.6461C267.276 34.8761 266.821 34.9911 266.301 34.9911ZM266.301 33.7611C266.631 33.7611 266.896 33.6261 267.096 33.3561C267.296 33.0761 267.396 32.6561 267.396 32.0961C267.396 31.5461 267.296 31.1311 267.096 30.8511C266.896 30.5711 266.631 30.4311 266.301 30.4311C265.981 30.4311 265.716 30.5711 265.506 30.8511C265.306 31.1211 265.206 31.5361 265.206 32.0961C265.206 32.6561 265.306 33.0761 265.506 33.3561C265.716 33.6261 265.981 33.7611 266.301 33.7611Z" fill="white"/>
<path d="M231.752 43V37.4H234.056C234.552 37.4 234.976 37.48 235.328 37.64C235.685 37.8 235.96 38.0293 236.152 38.328C236.344 38.6267 236.44 38.9813 236.44 39.392C236.44 39.8027 236.344 40.1573 236.152 40.456C235.96 40.7547 235.685 40.984 235.328 41.144C234.976 41.304 234.552 41.384 234.056 41.384H232.328L232.792 40.896V43H231.752ZM232.792 41.008L232.328 40.504H234.008C234.467 40.504 234.811 40.408 235.04 40.216C235.275 40.0187 235.392 39.744 235.392 39.392C235.392 39.0347 235.275 38.76 235.04 38.568C234.811 38.376 234.467 38.28 234.008 38.28H232.328L232.792 37.768V41.008ZM239.269 43.056C238.906 43.056 238.586 42.9893 238.309 42.856C238.031 42.7173 237.815 42.5093 237.661 42.232C237.506 41.9493 237.429 41.5947 237.429 41.168V38.728H238.429V41.032C238.429 41.416 238.514 41.704 238.685 41.896C238.861 42.0827 239.109 42.176 239.429 42.176C239.663 42.176 239.866 42.128 240.037 42.032C240.213 41.936 240.349 41.792 240.445 41.6C240.546 41.408 240.597 41.1707 240.597 40.888V38.728H241.597V43H240.645V41.848L240.813 42.2C240.669 42.4773 240.458 42.6907 240.181 42.84C239.903 42.984 239.599 43.056 239.269 43.056ZM245.274 43.056C244.911 43.056 244.589 42.976 244.306 42.816C244.023 42.656 243.799 42.416 243.634 42.096C243.474 41.7707 243.394 41.36 243.394 40.864C243.394 40.3627 243.477 39.952 243.642 39.632C243.813 39.312 244.039 39.0747 244.322 38.92C244.61 38.76 244.927 38.68 245.274 38.68C245.695 38.68 246.066 38.7707 246.386 38.952C246.711 39.1333 246.967 39.3867 247.154 39.712C247.346 40.0373 247.442 40.4213 247.442 40.864C247.442 41.3067 247.346 41.6907 247.154 42.016C246.967 42.3413 246.711 42.5973 246.386 42.784C246.066 42.9653 245.695 43.056 245.274 43.056ZM242.906 43V37.064H243.906V39.72L243.826 40.856L243.858 41.992V43H242.906ZM245.162 42.2C245.402 42.2 245.615 42.1467 245.802 42.04C245.994 41.9333 246.146 41.7787 246.258 41.576C246.37 41.3733 246.426 41.136 246.426 40.864C246.426 40.5867 246.37 40.3493 246.258 40.152C246.146 39.9493 245.994 39.7947 245.802 39.688C245.615 39.5813 245.402 39.528 245.162 39.528C244.922 39.528 244.706 39.5813 244.514 39.688C244.322 39.7947 244.17 39.9493 244.058 40.152C243.946 40.3493 243.89 40.5867 243.89 40.864C243.89 41.136 243.946 41.3733 244.058 41.576C244.17 41.7787 244.322 41.9333 244.514 42.04C244.706 42.1467 244.922 42.2 245.162 42.2ZM248.39 43V37.064H249.39V43H248.39ZM250.703 43V38.728H251.703V43H250.703ZM251.207 38.024C251.02 38.024 250.866 37.9653 250.743 37.848C250.626 37.7307 250.567 37.5893 250.567 37.424C250.567 37.2533 250.626 37.112 250.743 37C250.866 36.8827 251.02 36.824 251.207 36.824C251.394 36.824 251.546 36.88 251.663 36.992C251.786 37.0987 251.847 37.2347 251.847 37.4C251.847 37.576 251.788 37.7253 251.671 37.848C251.554 37.9653 251.399 38.024 251.207 38.024ZM254.975 43.056C254.527 43.056 254.127 42.9627 253.775 42.776C253.429 42.584 253.157 42.3227 252.959 41.992C252.762 41.6613 252.663 41.2853 252.663 40.864C252.663 40.4373 252.762 40.0613 252.959 39.736C253.157 39.4053 253.429 39.1467 253.775 38.96C254.127 38.7733 254.527 38.68 254.975 38.68C255.391 38.68 255.757 38.7653 256.071 38.936C256.391 39.1013 256.634 39.3467 256.799 39.672L256.031 40.12C255.903 39.9173 255.746 39.768 255.559 39.672C255.378 39.576 255.181 39.528 254.967 39.528C254.722 39.528 254.501 39.5813 254.303 39.688C254.106 39.7947 253.951 39.9493 253.839 40.152C253.727 40.3493 253.671 40.5867 253.671 40.864C253.671 41.1413 253.727 41.3813 253.839 41.584C253.951 41.7813 254.106 41.9333 254.303 42.04C254.501 42.1467 254.722 42.2 254.967 42.2C255.181 42.2 255.378 42.152 255.559 42.056C255.746 41.96 255.903 41.8107 256.031 41.608L256.799 42.056C256.634 42.376 256.391 42.624 256.071 42.8C255.757 42.9707 255.391 43.056 254.975 43.056ZM261.707 43.08C261.269 43.08 260.851 43.0187 260.451 42.896C260.051 42.768 259.733 42.6053 259.499 42.408L259.859 41.6C260.083 41.776 260.36 41.9227 260.691 42.04C261.021 42.1573 261.36 42.216 261.707 42.216C262 42.216 262.237 42.184 262.419 42.12C262.6 42.056 262.733 41.9707 262.819 41.864C262.904 41.752 262.947 41.6267 262.947 41.488C262.947 41.3173 262.885 41.1813 262.763 41.08C262.64 40.9733 262.48 40.8907 262.283 40.832C262.091 40.768 261.875 40.7093 261.635 40.656C261.4 40.6027 261.163 40.5413 260.923 40.472C260.688 40.3973 260.472 40.304 260.275 40.192C260.083 40.0747 259.925 39.92 259.803 39.728C259.68 39.536 259.619 39.2907 259.619 38.992C259.619 38.688 259.699 38.4107 259.859 38.16C260.024 37.904 260.272 37.7013 260.603 37.552C260.939 37.3973 261.363 37.32 261.875 37.32C262.211 37.32 262.544 37.3627 262.875 37.448C263.205 37.5333 263.493 37.656 263.739 37.816L263.411 38.624C263.16 38.4747 262.901 38.3653 262.635 38.296C262.368 38.2213 262.112 38.184 261.867 38.184C261.579 38.184 261.344 38.2187 261.163 38.288C260.987 38.3573 260.856 38.448 260.771 38.56C260.691 38.672 260.651 38.8 260.651 38.944C260.651 39.1147 260.709 39.2533 260.827 39.36C260.949 39.4613 261.107 39.5413 261.299 39.6C261.496 39.6587 261.715 39.7173 261.955 39.776C262.195 39.8293 262.432 39.8907 262.667 39.96C262.907 40.0293 263.123 40.12 263.315 40.232C263.512 40.344 263.669 40.496 263.787 40.688C263.909 40.88 263.971 41.1227 263.971 41.416C263.971 41.7147 263.888 41.992 263.723 42.248C263.563 42.4987 263.315 42.7013 262.979 42.856C262.643 43.0053 262.219 43.08 261.707 43.08ZM267.538 43V42.136L267.482 41.952V40.44C267.482 40.1467 267.394 39.92 267.218 39.76C267.042 39.5947 266.775 39.512 266.418 39.512C266.178 39.512 265.941 39.5493 265.706 39.624C265.477 39.6987 265.282 39.8027 265.122 39.936L264.73 39.208C264.959 39.032 265.231 38.9013 265.546 38.816C265.866 38.7253 266.197 38.68 266.538 38.68C267.157 38.68 267.634 38.8293 267.97 39.128C268.311 39.4213 268.482 39.8773 268.482 40.496V43H267.538ZM266.194 43.056C265.874 43.056 265.594 43.0027 265.354 42.896C265.114 42.784 264.927 42.632 264.794 42.44C264.666 42.2427 264.602 42.0213 264.602 41.776C264.602 41.536 264.658 41.32 264.77 41.128C264.887 40.936 265.077 40.784 265.338 40.672C265.599 40.56 265.946 40.504 266.378 40.504H267.618V41.168H266.45C266.109 41.168 265.879 41.224 265.762 41.336C265.645 41.4427 265.586 41.576 265.586 41.736C265.586 41.9173 265.658 42.0613 265.802 42.168C265.946 42.2747 266.146 42.328 266.402 42.328C266.647 42.328 266.866 42.272 267.058 42.16C267.255 42.048 267.397 41.8827 267.482 41.664L267.65 42.264C267.554 42.5147 267.381 42.7093 267.13 42.848C266.885 42.9867 266.573 43.056 266.194 43.056ZM269.765 43V37.064H270.765V43H269.765ZM274.086 43.056C273.611 43.056 273.195 42.9627 272.838 42.776C272.486 42.584 272.211 42.3227 272.014 41.992C271.822 41.6613 271.726 41.2853 271.726 40.864C271.726 40.4373 271.819 40.0613 272.006 39.736C272.198 39.4053 272.459 39.1467 272.79 38.96C273.126 38.7733 273.507 38.68 273.934 38.68C274.35 38.68 274.721 38.7707 275.046 38.952C275.371 39.1333 275.627 39.3893 275.814 39.72C276.001 40.0507 276.094 40.44 276.094 40.888C276.094 40.9307 276.091 40.9787 276.086 41.032C276.086 41.0853 276.083 41.136 276.078 41.184H272.518V40.52H275.55L275.158 40.728C275.163 40.4827 275.113 40.2667 275.006 40.08C274.899 39.8933 274.753 39.7467 274.566 39.64C274.385 39.5333 274.174 39.48 273.934 39.48C273.689 39.48 273.473 39.5333 273.286 39.64C273.105 39.7467 272.961 39.896 272.854 40.088C272.753 40.2747 272.702 40.496 272.702 40.752V40.912C272.702 41.168 272.761 41.3947 272.878 41.592C272.995 41.7893 273.161 41.9413 273.374 42.048C273.587 42.1547 273.833 42.208 274.11 42.208C274.35 42.208 274.566 42.1707 274.758 42.096C274.95 42.0213 275.121 41.904 275.27 41.744L275.806 42.36C275.614 42.584 275.371 42.7573 275.078 42.88C274.79 42.9973 274.459 43.056 274.086 43.056Z" fill="white"/>
<path d="M191.495 11V9.425L195.545 5.6C195.865 5.31 196.1 5.05 196.25 4.82C196.4 4.59 196.5 4.38 196.55 4.19C196.61 4 196.64 3.825 196.64 3.665C196.64 3.245 196.495 2.925 196.205 2.705C195.925 2.475 195.51 2.36 194.96 2.36C194.52 2.36 194.11 2.445 193.73 2.615C193.36 2.785 193.045 3.05 192.785 3.41L191.015 2.27C191.415 1.67 191.975 1.195 192.695 0.844999C193.415 0.495 194.245 0.32 195.185 0.32C195.965 0.32 196.645 0.45 197.225 0.709999C197.815 0.96 198.27 1.315 198.59 1.775C198.92 2.235 199.085 2.785 199.085 3.425C199.085 3.765 199.04 4.105 198.95 4.445C198.87 4.775 198.7 5.125 198.44 5.495C198.19 5.865 197.82 6.28 197.33 6.74L193.97 9.905L193.505 9.02H199.43V11H191.495ZM201.959 11.12C201.559 11.12 201.214 10.985 200.924 10.715C200.644 10.435 200.504 10.08 200.504 9.65C200.504 9.22 200.644 8.875 200.924 8.615C201.214 8.345 201.559 8.21 201.959 8.21C202.369 8.21 202.714 8.345 202.994 8.615C203.274 8.875 203.414 9.22 203.414 9.65C203.414 10.08 203.274 10.435 202.994 10.715C202.714 10.985 202.369 11.12 201.959 11.12ZM208.075 11.18C207.345 11.18 206.62 11.085 205.9 10.895C205.19 10.695 204.58 10.415 204.07 10.055L205.03 8.195C205.43 8.485 205.89 8.715 206.41 8.885C206.94 9.055 207.475 9.14 208.015 9.14C208.625 9.14 209.105 9.02 209.455 8.78C209.805 8.54 209.98 8.205 209.98 7.775C209.98 7.505 209.91 7.265 209.77 7.055C209.63 6.845 209.38 6.685 209.02 6.575C208.67 6.465 208.175 6.41 207.535 6.41H204.85L205.39 0.499999H211.795V2.45H206.26L207.52 1.34L207.145 5.555L205.885 4.445H208.105C209.145 4.445 209.98 4.59 210.61 4.88C211.25 5.16 211.715 5.545 212.005 6.035C212.295 6.525 212.44 7.08 212.44 7.7C212.44 8.32 212.285 8.895 211.975 9.425C211.665 9.945 211.185 10.37 210.535 10.7C209.895 11.02 209.075 11.18 208.075 11.18ZM214.794 11L221.964 0.499999H223.749L216.579 11H214.794ZM215.709 6.17C215.199 6.17 214.749 6.055 214.359 5.825C213.969 5.585 213.659 5.25 213.429 4.82C213.209 4.38 213.099 3.865 213.099 3.275C213.099 2.685 213.209 2.175 213.429 1.745C213.659 1.315 213.969 0.98 214.359 0.74C214.749 0.5 215.199 0.38 215.709 0.38C216.219 0.38 216.669 0.5 217.059 0.74C217.449 0.98 217.754 1.315 217.974 1.745C218.194 2.175 218.304 2.685 218.304 3.275C218.304 3.865 218.194 4.38 217.974 4.82C217.754 5.25 217.449 5.585 217.059 5.825C216.669 6.055 216.219 6.17 215.709 6.17ZM215.709 4.94C216.039 4.94 216.304 4.805 216.504 4.535C216.704 4.255 216.804 3.835 216.804 3.275C216.804 2.715 216.704 2.3 216.504 2.03C216.304 1.75 216.039 1.61 215.709 1.61C215.389 1.61 215.124 1.75 214.914 2.03C214.714 2.3 214.614 2.715 214.614 3.275C214.614 3.825 214.714 4.24 214.914 4.52C215.124 4.8 215.389 4.94 215.709 4.94ZM222.834 11.12C222.334 11.12 221.884 11.005 221.484 10.775C221.094 10.535 220.789 10.2 220.569 9.77C220.349 9.33 220.239 8.815 220.239 8.225C220.239 7.635 220.349 7.125 220.569 6.695C220.789 6.265 221.094 5.93 221.484 5.69C221.884 5.45 222.334 5.33 222.834 5.33C223.354 5.33 223.809 5.45 224.199 5.69C224.589 5.93 224.894 6.265 225.114 6.695C225.334 7.125 225.444 7.635 225.444 8.225C225.444 8.815 225.334 9.33 225.114 9.77C224.894 10.2 224.589 10.535 224.199 10.775C223.809 11.005 223.354 11.12 222.834 11.12ZM222.834 9.89C223.164 9.89 223.429 9.755 223.629 9.485C223.829 9.205 223.929 8.785 223.929 8.225C223.929 7.675 223.829 7.26 223.629 6.98C223.429 6.7 223.164 6.56 222.834 6.56C222.514 6.56 222.249 6.7 222.039 6.98C221.839 7.25 221.739 7.665 221.739 8.225C221.739 8.785 221.839 9.205 222.039 9.485C222.249 9.755 222.514 9.89 222.834 9.89Z" fill="white"/>
<path d="M184.752 19V13.4H187.056C187.552 13.4 187.976 13.48 188.328 13.64C188.685 13.8 188.96 14.0293 189.152 14.328C189.344 14.6267 189.44 14.9813 189.44 15.392C189.44 15.8027 189.344 16.1573 189.152 16.456C188.96 16.7547 188.685 16.984 188.328 17.144C187.976 17.304 187.552 17.384 187.056 17.384H185.328L185.792 16.896V19H184.752ZM185.792 17.008L185.328 16.504H187.008C187.467 16.504 187.811 16.408 188.04 16.216C188.275 16.0187 188.392 15.744 188.392 15.392C188.392 15.0347 188.275 14.76 188.04 14.568C187.811 14.376 187.467 14.28 187.008 14.28H185.328L185.792 13.768V17.008ZM190.344 19V14.728H191.296V15.904L191.184 15.56C191.312 15.272 191.512 15.0533 191.784 14.904C192.061 14.7547 192.405 14.68 192.816 14.68V15.632C192.773 15.6213 192.733 15.616 192.696 15.616C192.658 15.6107 192.621 15.608 192.584 15.608C192.205 15.608 191.904 15.72 191.68 15.944C191.456 16.1627 191.344 16.4907 191.344 16.928V19H190.344ZM193.664 19V14.728H194.664V19H193.664ZM194.168 14.024C193.981 14.024 193.826 13.9653 193.704 13.848C193.586 13.7307 193.528 13.5893 193.528 13.424C193.528 13.2533 193.586 13.112 193.704 13C193.826 12.8827 193.981 12.824 194.168 12.824C194.354 12.824 194.506 12.88 194.624 12.992C194.746 13.0987 194.808 13.2347 194.808 13.4C194.808 13.576 194.749 13.7253 194.632 13.848C194.514 13.9653 194.36 14.024 194.168 14.024ZM197.112 19L195.28 14.728H196.32L197.896 18.496H197.384L199.016 14.728H199.976L198.144 19H197.112ZM203.101 19V18.136L203.045 17.952V16.44C203.045 16.1467 202.957 15.92 202.781 15.76C202.605 15.5947 202.338 15.512 201.981 15.512C201.741 15.512 201.503 15.5493 201.269 15.624C201.039 15.6987 200.845 15.8027 200.685 15.936L200.293 15.208C200.522 15.032 200.794 14.9013 201.109 14.816C201.429 14.7253 201.759 14.68 202.101 14.68C202.719 14.68 203.197 14.8293 203.533 15.128C203.874 15.4213 204.045 15.8773 204.045 16.496V19H203.101ZM201.757 19.056C201.437 19.056 201.157 19.0027 200.917 18.896C200.677 18.784 200.49 18.632 200.357 18.44C200.229 18.2427 200.165 18.0213 200.165 17.776C200.165 17.536 200.221 17.32 200.333 17.128C200.45 16.936 200.639 16.784 200.901 16.672C201.162 16.56 201.509 16.504 201.941 16.504H203.181V17.168H202.013C201.671 17.168 201.442 17.224 201.325 17.336C201.207 17.4427 201.149 17.576 201.149 17.736C201.149 17.9173 201.221 18.0613 201.365 18.168C201.509 18.2747 201.709 18.328 201.965 18.328C202.21 18.328 202.429 18.272 202.621 18.16C202.818 18.048 202.959 17.8827 203.045 17.664L203.213 18.264C203.117 18.5147 202.943 18.7093 202.693 18.848C202.447 18.9867 202.135 19.056 201.757 19.056ZM206.936 19.056C206.467 19.056 206.104 18.936 205.848 18.696C205.592 18.4507 205.464 18.0907 205.464 17.616V13.784H206.464V17.592C206.464 17.7947 206.515 17.952 206.616 18.064C206.723 18.176 206.869 18.232 207.056 18.232C207.28 18.232 207.467 18.1733 207.616 18.056L207.896 18.768C207.779 18.864 207.635 18.936 207.464 18.984C207.293 19.032 207.117 19.056 206.936 19.056ZM204.76 15.56V14.76H207.608V15.56H204.76ZM210.586 19.056C210.111 19.056 209.695 18.9627 209.338 18.776C208.986 18.584 208.711 18.3227 208.514 17.992C208.322 17.6613 208.226 17.2853 208.226 16.864C208.226 16.4373 208.319 16.0613 208.506 15.736C208.698 15.4053 208.959 15.1467 209.29 14.96C209.626 14.7733 210.007 14.68 210.434 14.68C210.85 14.68 211.221 14.7707 211.546 14.952C211.871 15.1333 212.127 15.3893 212.314 15.72C212.501 16.0507 212.594 16.44 212.594 16.888C212.594 16.9307 212.591 16.9787 212.586 17.032C212.586 17.0853 212.583 17.136 212.578 17.184H209.018V16.52H212.05L211.658 16.728C211.663 16.4827 211.613 16.2667 211.506 16.08C211.399 15.8933 211.253 15.7467 211.066 15.64C210.885 15.5333 210.674 15.48 210.434 15.48C210.189 15.48 209.973 15.5333 209.786 15.64C209.605 15.7467 209.461 15.896 209.354 16.088C209.253 16.2747 209.202 16.496 209.202 16.752V16.912C209.202 17.168 209.261 17.3947 209.378 17.592C209.495 17.7893 209.661 17.9413 209.874 18.048C210.087 18.1547 210.333 18.208 210.61 18.208C210.85 18.208 211.066 18.1707 211.258 18.096C211.45 18.0213 211.621 17.904 211.77 17.744L212.306 18.36C212.114 18.584 211.871 18.7573 211.578 18.88C211.29 18.9973 210.959 19.056 210.586 19.056ZM217.597 19.08C217.16 19.08 216.741 19.0187 216.341 18.896C215.941 18.768 215.624 18.6053 215.389 18.408L215.749 17.6C215.973 17.776 216.251 17.9227 216.581 18.04C216.912 18.1573 217.251 18.216 217.597 18.216C217.891 18.216 218.128 18.184 218.309 18.12C218.491 18.056 218.624 17.9707 218.709 17.864C218.795 17.752 218.837 17.6267 218.837 17.488C218.837 17.3173 218.776 17.1813 218.653 17.08C218.531 16.9733 218.371 16.8907 218.173 16.832C217.981 16.768 217.765 16.7093 217.525 16.656C217.291 16.6027 217.053 16.5413 216.813 16.472C216.579 16.3973 216.363 16.304 216.165 16.192C215.973 16.0747 215.816 15.92 215.693 15.728C215.571 15.536 215.509 15.2907 215.509 14.992C215.509 14.688 215.589 14.4107 215.749 14.16C215.915 13.904 216.163 13.7013 216.493 13.552C216.829 13.3973 217.253 13.32 217.765 13.32C218.101 13.32 218.435 13.3627 218.765 13.448C219.096 13.5333 219.384 13.656 219.629 13.816L219.301 14.624C219.051 14.4747 218.792 14.3653 218.525 14.296C218.259 14.2213 218.003 14.184 217.757 14.184C217.469 14.184 217.235 14.2187 217.053 14.288C216.877 14.3573 216.747 14.448 216.661 14.56C216.581 14.672 216.541 14.8 216.541 14.944C216.541 15.1147 216.6 15.2533 216.717 15.36C216.84 15.4613 216.997 15.5413 217.189 15.6C217.387 15.6587 217.605 15.7173 217.845 15.776C218.085 15.8293 218.323 15.8907 218.557 15.96C218.797 16.0293 219.013 16.12 219.205 16.232C219.403 16.344 219.56 16.496 219.677 16.688C219.8 16.88 219.861 17.1227 219.861 17.416C219.861 17.7147 219.779 17.992 219.613 18.248C219.453 18.4987 219.205 18.7013 218.869 18.856C218.533 19.0053 218.109 19.08 217.597 19.08ZM223.429 19V18.136L223.373 17.952V16.44C223.373 16.1467 223.285 15.92 223.109 15.76C222.933 15.5947 222.666 15.512 222.309 15.512C222.069 15.512 221.831 15.5493 221.597 15.624C221.367 15.6987 221.173 15.8027 221.013 15.936L220.621 15.208C220.85 15.032 221.122 14.9013 221.437 14.816C221.757 14.7253 222.087 14.68 222.429 14.68C223.047 14.68 223.525 14.8293 223.861 15.128C224.202 15.4213 224.373 15.8773 224.373 16.496V19H223.429ZM222.085 19.056C221.765 19.056 221.485 19.0027 221.245 18.896C221.005 18.784 220.818 18.632 220.685 18.44C220.557 18.2427 220.493 18.0213 220.493 17.776C220.493 17.536 220.549 17.32 220.661 17.128C220.778 16.936 220.967 16.784 221.229 16.672C221.49 16.56 221.837 16.504 222.269 16.504H223.509V17.168H222.341C221.999 17.168 221.77 17.224 221.653 17.336C221.535 17.4427 221.477 17.576 221.477 17.736C221.477 17.9173 221.549 18.0613 221.693 18.168C221.837 18.2747 222.037 18.328 222.293 18.328C222.538 18.328 222.757 18.272 222.949 18.16C223.146 18.048 223.287 17.8827 223.373 17.664L223.541 18.264C223.445 18.5147 223.271 18.7093 223.021 18.848C222.775 18.9867 222.463 19.056 222.085 19.056ZM225.656 19V13.064H226.656V19H225.656ZM229.977 19.056C229.502 19.056 229.086 18.9627 228.729 18.776C228.377 18.584 228.102 18.3227 227.905 17.992C227.713 17.6613 227.617 17.2853 227.617 16.864C227.617 16.4373 227.71 16.0613 227.897 15.736C228.089 15.4053 228.35 15.1467 228.681 14.96C229.017 14.7733 229.398 14.68 229.825 14.68C230.241 14.68 230.611 14.7707 230.937 14.952C231.262 15.1333 231.518 15.3893 231.705 15.72C231.891 16.0507 231.985 16.44 231.985 16.888C231.985 16.9307 231.982 16.9787 231.977 17.032C231.977 17.0853 231.974 17.136 231.969 17.184H228.409V16.52H231.441L231.049 16.728C231.054 16.4827 231.003 16.2667 230.897 16.08C230.79 15.8933 230.643 15.7467 230.457 15.64C230.275 15.5333 230.065 15.48 229.825 15.48C229.579 15.48 229.363 15.5333 229.177 15.64C228.995 15.7467 228.851 15.896 228.745 16.088C228.643 16.2747 228.593 16.496 228.593 16.752V16.912C228.593 17.168 228.651 17.3947 228.769 17.592C228.886 17.7893 229.051 17.9413 229.265 18.048C229.478 18.1547 229.723 18.208 230.001 18.208C230.241 18.208 230.457 18.1707 230.649 18.096C230.841 18.0213 231.011 17.904 231.161 17.744L231.697 18.36C231.505 18.584 231.262 18.7573 230.969 18.88C230.681 18.9973 230.35 19.056 229.977 19.056Z" fill="white"/>
<path d="M82.205 19V9.4L83.255 10.45H80.105V8.5H84.635V19H82.205ZM87.839 19.12C87.439 19.12 87.094 18.985 86.804 18.715C86.524 18.435 86.384 18.08 86.384 17.65C86.384 17.22 86.524 16.875 86.804 16.615C87.094 16.345 87.439 16.21 87.839 16.21C88.249 16.21 88.594 16.345 88.874 16.615C89.154 16.875 89.294 17.22 89.294 17.65C89.294 18.08 89.154 18.435 88.874 18.715C88.594 18.985 88.249 19.12 87.839 19.12ZM93.9548 19.18C93.2248 19.18 92.4998 19.085 91.7798 18.895C91.0698 18.695 90.4598 18.415 89.9498 18.055L90.9098 16.195C91.3098 16.485 91.7698 16.715 92.2898 16.885C92.8198 17.055 93.3548 17.14 93.8948 17.14C94.5048 17.14 94.9848 17.02 95.3348 16.78C95.6848 16.54 95.8598 16.205 95.8598 15.775C95.8598 15.505 95.7898 15.265 95.6498 15.055C95.5098 14.845 95.2598 14.685 94.8998 14.575C94.5498 14.465 94.0548 14.41 93.4148 14.41H90.7298L91.2698 8.5H97.6748V10.45H92.1398L93.3998 9.34L93.0248 13.555L91.7648 12.445H93.9848C95.0248 12.445 95.8598 12.59 96.4898 12.88C97.1298 13.16 97.5948 13.545 97.8848 14.035C98.1748 14.525 98.3198 15.08 98.3198 15.7C98.3198 16.32 98.1648 16.895 97.8548 17.425C97.5448 17.945 97.0648 18.37 96.4148 18.7C95.7748 19.02 94.9548 19.18 93.9548 19.18ZM100.674 19L107.844 8.5H109.629L102.459 19H100.674ZM101.589 14.17C101.079 14.17 100.629 14.055 100.239 13.825C99.8492 13.585 99.5392 13.25 99.3092 12.82C99.0892 12.38 98.9792 11.865 98.9792 11.275C98.9792 10.685 99.0892 10.175 99.3092 9.745C99.5392 9.315 99.8492 8.98 100.239 8.74C100.629 8.5 101.079 8.38 101.589 8.38C102.099 8.38 102.549 8.5 102.939 8.74C103.329 8.98 103.634 9.315 103.854 9.745C104.074 10.175 104.184 10.685 104.184 11.275C104.184 11.865 104.074 12.38 103.854 12.82C103.634 13.25 103.329 13.585 102.939 13.825C102.549 14.055 102.099 14.17 101.589 14.17ZM101.589 12.94C101.919 12.94 102.184 12.805 102.384 12.535C102.584 12.255 102.684 11.835 102.684 11.275C102.684 10.715 102.584 10.3 102.384 10.03C102.184 9.75 101.919 9.61 101.589 9.61C101.269 9.61 101.004 9.75 100.794 10.03C100.594 10.3 100.494 10.715 100.494 11.275C100.494 11.825 100.594 12.24 100.794 12.52C101.004 12.8 101.269 12.94 101.589 12.94ZM108.714 19.12C108.214 19.12 107.764 19.005 107.364 18.775C106.974 18.535 106.669 18.2 106.449 17.77C106.229 17.33 106.119 16.815 106.119 16.225C106.119 15.635 106.229 15.125 106.449 14.695C106.669 14.265 106.974 13.93 107.364 13.69C107.764 13.45 108.214 13.33 108.714 13.33C109.234 13.33 109.689 13.45 110.079 13.69C110.469 13.93 110.774 14.265 110.994 14.695C111.214 15.125 111.324 15.635 111.324 16.225C111.324 16.815 111.214 17.33 110.994 17.77C110.774 18.2 110.469 18.535 110.079 18.775C109.689 19.005 109.234 19.12 108.714 19.12ZM108.714 17.89C109.044 17.89 109.309 17.755 109.509 17.485C109.709 17.205 109.809 16.785 109.809 16.225C109.809 15.675 109.709 15.26 109.509 14.98C109.309 14.7 109.044 14.56 108.714 14.56C108.394 14.56 108.129 14.7 107.919 14.98C107.719 15.25 107.619 15.665 107.619 16.225C107.619 16.785 107.719 17.205 107.919 17.485C108.129 17.755 108.394 17.89 108.714 17.89Z" fill="white"/>
<path d="M79.96 27L82.48 21.4H83.504L86.032 27H84.944L82.776 21.952H83.192L81.032 27H79.96ZM81.12 25.704L81.4 24.888H84.424L84.704 25.704H81.12ZM86.6482 27V22.728H87.6482V27H86.6482ZM87.1522 22.024C86.9655 22.024 86.8109 21.9653 86.6882 21.848C86.5709 21.7307 86.5122 21.5893 86.5122 21.424C86.5122 21.2533 86.5709 21.112 86.6882 21C86.8109 20.8827 86.9655 20.824 87.1522 20.824C87.3389 20.824 87.4909 20.88 87.6082 20.992C87.7309 21.0987 87.7922 21.2347 87.7922 21.4C87.7922 21.576 87.7335 21.7253 87.6162 21.848C87.4989 21.9653 87.3442 22.024 87.1522 22.024ZM88.9607 27V22.728H89.9127V23.904L89.8007 23.56C89.9287 23.272 90.1287 23.0533 90.4007 22.904C90.678 22.7547 91.022 22.68 91.4327 22.68V23.632C91.39 23.6213 91.35 23.616 91.3127 23.616C91.2754 23.6107 91.238 23.608 91.2007 23.608C90.822 23.608 90.5207 23.72 90.2967 23.944C90.0727 24.1627 89.9607 24.4907 89.9607 24.928V27H88.9607ZM94.0499 27.056C93.6393 27.056 93.2686 26.9653 92.9379 26.784C92.6126 26.5973 92.3566 26.3413 92.1699 26.016C91.9833 25.6907 91.8899 25.3067 91.8899 24.864C91.8899 24.4213 91.9833 24.0373 92.1699 23.712C92.3566 23.3867 92.6126 23.1333 92.9379 22.952C93.2686 22.7707 93.6393 22.68 94.0499 22.68C94.4073 22.68 94.7273 22.76 95.0099 22.92C95.2926 23.0747 95.5166 23.312 95.6819 23.632C95.8473 23.952 95.9299 24.3627 95.9299 24.864C95.9299 25.36 95.8499 25.7707 95.6899 26.096C95.5299 26.416 95.3086 26.656 95.0259 26.816C94.7433 26.976 94.4179 27.056 94.0499 27.056ZM94.1699 26.2C94.4099 26.2 94.6233 26.1467 94.8099 26.04C95.0019 25.9333 95.1539 25.7787 95.2659 25.576C95.3833 25.3733 95.4419 25.136 95.4419 24.864C95.4419 24.5867 95.3833 24.3493 95.2659 24.152C95.1539 23.9493 95.0019 23.7947 94.8099 23.688C94.6233 23.5813 94.4099 23.528 94.1699 23.528C93.9299 23.528 93.7139 23.5813 93.5219 23.688C93.3353 23.7947 93.1833 23.9493 93.0659 24.152C92.9539 24.3493 92.8979 24.5867 92.8979 24.864C92.8979 25.136 92.9539 25.3733 93.0659 25.576C93.1833 25.7787 93.3353 25.9333 93.5219 26.04C93.7139 26.1467 93.9299 26.2 94.1699 26.2ZM95.4659 27V25.992L95.5059 24.856L95.4259 23.72V21.064H96.4179V27H95.4659ZM97.7341 27V22.728H98.6861V23.904L98.5741 23.56C98.7021 23.272 98.9021 23.0533 99.1741 22.904C99.4515 22.7547 99.7955 22.68 100.206 22.68V23.632C100.163 23.6213 100.123 23.616 100.086 23.616C100.049 23.6107 100.011 23.608 99.9741 23.608C99.5955 23.608 99.2941 23.72 99.0701 23.944C98.8461 24.1627 98.7341 24.4907 98.7341 24.928V27H97.7341ZM102.935 27.056C102.498 27.056 102.109 26.9627 101.767 26.776C101.426 26.584 101.157 26.3227 100.959 25.992C100.762 25.6613 100.663 25.2853 100.663 24.864C100.663 24.4373 100.762 24.0613 100.959 23.736C101.157 23.4053 101.426 23.1467 101.767 22.96C102.109 22.7733 102.498 22.68 102.935 22.68C103.378 22.68 103.77 22.7733 104.111 22.96C104.458 23.1467 104.727 23.4027 104.919 23.728C105.117 24.0533 105.215 24.432 105.215 24.864C105.215 25.2853 105.117 25.6613 104.919 25.992C104.727 26.3227 104.458 26.584 104.111 26.776C103.77 26.9627 103.378 27.056 102.935 27.056ZM102.935 26.2C103.181 26.2 103.399 26.1467 103.591 26.04C103.783 25.9333 103.933 25.7787 104.039 25.576C104.151 25.3733 104.207 25.136 104.207 24.864C104.207 24.5867 104.151 24.3493 104.039 24.152C103.933 23.9493 103.783 23.7947 103.591 23.688C103.399 23.5813 103.183 23.528 102.943 23.528C102.698 23.528 102.479 23.5813 102.287 23.688C102.101 23.7947 101.951 23.9493 101.839 24.152C101.727 24.3493 101.671 24.5867 101.671 24.864C101.671 25.136 101.727 25.3733 101.839 25.576C101.951 25.7787 102.101 25.9333 102.287 26.04C102.479 26.1467 102.695 26.2 102.935 26.2ZM108.54 27.056C108.193 27.056 107.876 26.976 107.588 26.816C107.305 26.656 107.078 26.416 106.908 26.096C106.742 25.7707 106.66 25.36 106.66 24.864C106.66 24.3627 106.74 23.952 106.9 23.632C107.065 23.312 107.289 23.0747 107.572 22.92C107.854 22.76 108.177 22.68 108.54 22.68C108.961 22.68 109.332 22.7707 109.652 22.952C109.977 23.1333 110.233 23.3867 110.42 23.712C110.612 24.0373 110.708 24.4213 110.708 24.864C110.708 25.3067 110.612 25.6933 110.42 26.024C110.233 26.3493 109.977 26.6027 109.652 26.784C109.332 26.9653 108.961 27.056 108.54 27.056ZM106.172 28.552V22.728H107.124V23.736L107.092 24.872L107.172 26.008V28.552H106.172ZM108.428 26.2C108.668 26.2 108.881 26.1467 109.068 26.04C109.26 25.9333 109.412 25.7787 109.524 25.576C109.636 25.3733 109.692 25.136 109.692 24.864C109.692 24.5867 109.636 24.3493 109.524 24.152C109.412 23.9493 109.26 23.7947 109.068 23.688C108.881 23.5813 108.668 23.528 108.428 23.528C108.188 23.528 107.972 23.5813 107.78 23.688C107.588 23.7947 107.436 23.9493 107.324 24.152C107.212 24.3493 107.156 24.5867 107.156 24.864C107.156 25.136 107.212 25.3733 107.324 25.576C107.436 25.7787 107.588 25.9333 107.78 26.04C107.972 26.1467 108.188 26.2 108.428 26.2Z" fill="white"/>
<path d="M294.205 118V108.4L295.255 109.45H292.105V107.5H296.635V118H294.205ZM298.369 118V116.425L302.419 112.6C302.739 112.31 302.974 112.05 303.124 111.82C303.274 111.59 303.374 111.38 303.424 111.19C303.484 111 303.514 110.825 303.514 110.665C303.514 110.245 303.369 109.925 303.079 109.705C302.799 109.475 302.384 109.36 301.834 109.36C301.394 109.36 300.984 109.445 300.604 109.615C300.234 109.785 299.919 110.05 299.659 110.41L297.889 109.27C298.289 108.67 298.849 108.195 299.569 107.845C300.289 107.495 301.119 107.32 302.059 107.32C302.839 107.32 303.519 107.45 304.099 107.71C304.689 107.96 305.144 108.315 305.464 108.775C305.794 109.235 305.959 109.785 305.959 110.425C305.959 110.765 305.914 111.105 305.824 111.445C305.744 111.775 305.574 112.125 305.314 112.495C305.064 112.865 304.694 113.28 304.204 113.74L300.844 116.905L300.379 116.02H306.304V118H298.369ZM308.968 118L316.138 107.5H317.923L310.753 118H308.968ZM309.883 113.17C309.373 113.17 308.923 113.055 308.533 112.825C308.143 112.585 307.833 112.25 307.603 111.82C307.383 111.38 307.273 110.865 307.273 110.275C307.273 109.685 307.383 109.175 307.603 108.745C307.833 108.315 308.143 107.98 308.533 107.74C308.923 107.5 309.373 107.38 309.883 107.38C310.393 107.38 310.843 107.5 311.233 107.74C311.623 107.98 311.928 108.315 312.148 108.745C312.368 109.175 312.478 109.685 312.478 110.275C312.478 110.865 312.368 111.38 312.148 111.82C311.928 112.25 311.623 112.585 311.233 112.825C310.843 113.055 310.393 113.17 309.883 113.17ZM309.883 111.94C310.213 111.94 310.478 111.805 310.678 111.535C310.878 111.255 310.978 110.835 310.978 110.275C310.978 109.715 310.878 109.3 310.678 109.03C310.478 108.75 310.213 108.61 309.883 108.61C309.563 108.61 309.298 108.75 309.088 109.03C308.888 109.3 308.788 109.715 308.788 110.275C308.788 110.825 308.888 111.24 309.088 111.52C309.298 111.8 309.563 111.94 309.883 111.94ZM317.008 118.12C316.508 118.12 316.058 118.005 315.658 117.775C315.268 117.535 314.963 117.2 314.743 116.77C314.523 116.33 314.413 115.815 314.413 115.225C314.413 114.635 314.523 114.125 314.743 113.695C314.963 113.265 315.268 112.93 315.658 112.69C316.058 112.45 316.508 112.33 317.008 112.33C317.528 112.33 317.983 112.45 318.373 112.69C318.763 112.93 319.068 113.265 319.288 113.695C319.508 114.125 319.618 114.635 319.618 115.225C319.618 115.815 319.508 116.33 319.288 116.77C319.068 117.2 318.763 117.535 318.373 117.775C317.983 118.005 317.528 118.12 317.008 118.12ZM317.008 116.89C317.338 116.89 317.603 116.755 317.803 116.485C318.003 116.205 318.103 115.785 318.103 115.225C318.103 114.675 318.003 114.26 317.803 113.98C317.603 113.7 317.338 113.56 317.008 113.56C316.688 113.56 316.423 113.7 316.213 113.98C316.013 114.25 315.913 114.665 315.913 115.225C315.913 115.785 316.013 116.205 316.213 116.485C316.423 116.755 316.688 116.89 317.008 116.89Z" fill="white"/>
<path d="M296.888 126V121.28H295.032V120.4H299.784V121.28H297.928V126H296.888ZM302.039 126.056C301.564 126.056 301.148 125.963 300.791 125.776C300.439 125.584 300.164 125.323 299.967 124.992C299.775 124.661 299.679 124.285 299.679 123.864C299.679 123.437 299.772 123.061 299.959 122.736C300.151 122.405 300.412 122.147 300.743 121.96C301.079 121.773 301.46 121.68 301.887 121.68C302.303 121.68 302.674 121.771 302.999 121.952C303.324 122.133 303.58 122.389 303.767 122.72C303.954 123.051 304.047 123.44 304.047 123.888C304.047 123.931 304.044 123.979 304.039 124.032C304.039 124.085 304.036 124.136 304.031 124.184H300.471V123.52H303.503L303.111 123.728C303.116 123.483 303.066 123.267 302.959 123.08C302.852 122.893 302.706 122.747 302.519 122.64C302.338 122.533 302.127 122.48 301.887 122.48C301.642 122.48 301.426 122.533 301.239 122.64C301.058 122.747 300.914 122.896 300.807 123.088C300.706 123.275 300.655 123.496 300.655 123.752V123.912C300.655 124.168 300.714 124.395 300.831 124.592C300.948 124.789 301.114 124.941 301.327 125.048C301.54 125.155 301.786 125.208 302.063 125.208C302.303 125.208 302.519 125.171 302.711 125.096C302.903 125.021 303.074 124.904 303.223 124.744L303.759 125.36C303.567 125.584 303.324 125.757 303.031 125.88C302.743 125.997 302.412 126.056 302.039 126.056ZM307.522 126V125.136L307.466 124.952V123.44C307.466 123.147 307.378 122.92 307.202 122.76C307.026 122.595 306.76 122.512 306.402 122.512C306.162 122.512 305.925 122.549 305.69 122.624C305.461 122.699 305.266 122.803 305.106 122.936L304.714 122.208C304.944 122.032 305.216 121.901 305.53 121.816C305.85 121.725 306.181 121.68 306.522 121.68C307.141 121.68 307.618 121.829 307.954 122.128C308.296 122.421 308.466 122.877 308.466 123.496V126H307.522ZM306.178 126.056C305.858 126.056 305.578 126.003 305.338 125.896C305.098 125.784 304.912 125.632 304.778 125.44C304.65 125.243 304.586 125.021 304.586 124.776C304.586 124.536 304.642 124.32 304.754 124.128C304.872 123.936 305.061 123.784 305.322 123.672C305.584 123.56 305.93 123.504 306.362 123.504H307.602V124.168H306.434C306.093 124.168 305.864 124.224 305.746 124.336C305.629 124.443 305.57 124.576 305.57 124.736C305.57 124.917 305.642 125.061 305.786 125.168C305.93 125.275 306.13 125.328 306.386 125.328C306.632 125.328 306.85 125.272 307.042 125.16C307.24 125.048 307.381 124.883 307.466 124.664L307.634 125.264C307.538 125.515 307.365 125.709 307.114 125.848C306.869 125.987 306.557 126.056 306.178 126.056ZM315.142 121.68C315.483 121.68 315.784 121.747 316.046 121.88C316.312 122.013 316.52 122.219 316.67 122.496C316.819 122.768 316.894 123.12 316.894 123.552V126H315.894V123.68C315.894 123.301 315.811 123.019 315.646 122.832C315.48 122.645 315.243 122.552 314.934 122.552C314.715 122.552 314.52 122.6 314.35 122.696C314.184 122.792 314.054 122.933 313.958 123.12C313.867 123.307 313.822 123.544 313.822 123.832V126H312.822V123.68C312.822 123.301 312.739 123.019 312.574 122.832C312.408 122.645 312.171 122.552 311.862 122.552C311.643 122.552 311.448 122.6 311.278 122.696C311.112 122.792 310.982 122.933 310.886 123.12C310.795 123.307 310.75 123.544 310.75 123.832V126H309.75V121.728H310.702V122.864L310.534 122.528C310.678 122.251 310.886 122.04 311.158 121.896C311.435 121.752 311.75 121.68 312.102 121.68C312.502 121.68 312.848 121.779 313.142 121.976C313.44 122.173 313.638 122.472 313.734 122.872L313.342 122.736C313.48 122.416 313.71 122.16 314.03 121.968C314.35 121.776 314.72 121.68 315.142 121.68Z" fill="white"/>
<path d="M267.225 204.52V194.92L268.275 195.97H265.125V194.02H269.655V204.52H267.225ZM275.049 204.7C274.319 204.7 273.594 204.605 272.874 204.415C272.164 204.215 271.554 203.935 271.044 203.575L272.004 201.715C272.404 202.005 272.864 202.235 273.384 202.405C273.914 202.575 274.449 202.66 274.989 202.66C275.599 202.66 276.079 202.54 276.429 202.3C276.779 202.06 276.954 201.725 276.954 201.295C276.954 201.025 276.884 200.785 276.744 200.575C276.604 200.365 276.354 200.205 275.994 200.095C275.644 199.985 275.149 199.93 274.509 199.93H271.824L272.364 194.02H278.769V195.97H273.234L274.494 194.86L274.119 199.075L272.859 197.965H275.079C276.119 197.965 276.954 198.11 277.584 198.4C278.224 198.68 278.689 199.065 278.979 199.555C279.269 200.045 279.414 200.6 279.414 201.22C279.414 201.84 279.259 202.415 278.949 202.945C278.639 203.465 278.159 203.89 277.509 204.22C276.869 204.54 276.049 204.7 275.049 204.7ZM281.768 204.52L288.938 194.02H290.723L283.553 204.52H281.768ZM282.683 199.69C282.173 199.69 281.723 199.575 281.333 199.345C280.943 199.105 280.633 198.77 280.403 198.34C280.183 197.9 280.073 197.385 280.073 196.795C280.073 196.205 280.183 195.695 280.403 195.265C280.633 194.835 280.943 194.5 281.333 194.26C281.723 194.02 282.173 193.9 282.683 193.9C283.193 193.9 283.643 194.02 284.033 194.26C284.423 194.5 284.728 194.835 284.948 195.265C285.168 195.695 285.278 196.205 285.278 196.795C285.278 197.385 285.168 197.9 284.948 198.34C284.728 198.77 284.423 199.105 284.033 199.345C283.643 199.575 283.193 199.69 282.683 199.69ZM282.683 198.46C283.013 198.46 283.278 198.325 283.478 198.055C283.678 197.775 283.778 197.355 283.778 196.795C283.778 196.235 283.678 195.82 283.478 195.55C283.278 195.27 283.013 195.13 282.683 195.13C282.363 195.13 282.098 195.27 281.888 195.55C281.688 195.82 281.588 196.235 281.588 196.795C281.588 197.345 281.688 197.76 281.888 198.04C282.098 198.32 282.363 198.46 282.683 198.46ZM289.808 204.64C289.308 204.64 288.858 204.525 288.458 204.295C288.068 204.055 287.763 203.72 287.543 203.29C287.323 202.85 287.213 202.335 287.213 201.745C287.213 201.155 287.323 200.645 287.543 200.215C287.763 199.785 288.068 199.45 288.458 199.21C288.858 198.97 289.308 198.85 289.808 198.85C290.328 198.85 290.783 198.97 291.173 199.21C291.563 199.45 291.868 199.785 292.088 200.215C292.308 200.645 292.418 201.155 292.418 201.745C292.418 202.335 292.308 202.85 292.088 203.29C291.868 203.72 291.563 204.055 291.173 204.295C290.783 204.525 290.328 204.64 289.808 204.64ZM289.808 203.41C290.138 203.41 290.403 203.275 290.603 203.005C290.803 202.725 290.903 202.305 290.903 201.745C290.903 201.195 290.803 200.78 290.603 200.5C290.403 200.22 290.138 200.08 289.808 200.08C289.488 200.08 289.223 200.22 289.013 200.5C288.813 200.77 288.713 201.185 288.713 201.745C288.713 202.305 288.813 202.725 289.013 203.005C289.223 203.275 289.488 203.41 289.808 203.41Z" fill="white"/>
<path d="M269.704 209.976H272.496V210.856H269.704V209.976ZM269.792 213H268.752V207.4H272.84V208.272H269.792V213ZM275.441 213.056C275.078 213.056 274.758 212.989 274.481 212.856C274.203 212.717 273.987 212.509 273.833 212.232C273.678 211.949 273.601 211.595 273.601 211.168V208.728H274.601V211.032C274.601 211.416 274.686 211.704 274.857 211.896C275.033 212.083 275.281 212.176 275.601 212.176C275.835 212.176 276.038 212.128 276.209 212.032C276.385 211.936 276.521 211.792 276.617 211.6C276.718 211.408 276.769 211.171 276.769 210.888V208.728H277.769V213H276.817V211.848L276.985 212.2C276.841 212.477 276.63 212.691 276.353 212.84C276.075 212.984 275.771 213.056 275.441 213.056ZM281.502 208.68C281.843 208.68 282.147 208.747 282.414 208.88C282.686 209.013 282.899 209.219 283.054 209.496C283.209 209.768 283.286 210.12 283.286 210.552V213H282.286V210.68C282.286 210.301 282.195 210.019 282.014 209.832C281.838 209.645 281.59 209.552 281.27 209.552C281.035 209.552 280.827 209.6 280.646 209.696C280.465 209.792 280.323 209.936 280.222 210.128C280.126 210.315 280.078 210.552 280.078 210.84V213H279.078V208.728H280.03V209.88L279.862 209.528C280.011 209.256 280.227 209.048 280.51 208.904C280.798 208.755 281.129 208.68 281.502 208.68ZM286.37 213.056C285.96 213.056 285.589 212.965 285.258 212.784C284.933 212.597 284.677 212.341 284.49 212.016C284.304 211.691 284.21 211.307 284.21 210.864C284.21 210.421 284.304 210.037 284.49 209.712C284.677 209.387 284.933 209.133 285.258 208.952C285.589 208.771 285.96 208.68 286.37 208.68C286.728 208.68 287.048 208.76 287.33 208.92C287.613 209.075 287.837 209.312 288.002 209.632C288.168 209.952 288.25 210.363 288.25 210.864C288.25 211.36 288.17 211.771 288.01 212.096C287.85 212.416 287.629 212.656 287.346 212.816C287.064 212.976 286.738 213.056 286.37 213.056ZM286.49 212.2C286.73 212.2 286.944 212.147 287.13 212.04C287.322 211.933 287.474 211.779 287.586 211.576C287.704 211.373 287.762 211.136 287.762 210.864C287.762 210.587 287.704 210.349 287.586 210.152C287.474 209.949 287.322 209.795 287.13 209.688C286.944 209.581 286.73 209.528 286.49 209.528C286.25 209.528 286.034 209.581 285.842 209.688C285.656 209.795 285.504 209.949 285.386 210.152C285.274 210.349 285.218 210.587 285.218 210.864C285.218 211.136 285.274 211.373 285.386 211.576C285.504 211.779 285.656 211.933 285.842 212.04C286.034 212.147 286.25 212.2 286.49 212.2ZM287.786 213V211.992L287.826 210.856L287.746 209.72V207.064H288.738V213H287.786Z" fill="white"/>
<defs>
<linearGradient id="paint0_linear_5518_3551" x1="243.274" y1="143.241" x2="204.693" y2="203.707" gradientUnits="userSpaceOnUse">
<stop stop-color="#B2FF0F"/>
<stop offset="1" stop-color="#76FFEF"/>
</linearGradient>
<linearGradient id="paint1_linear_5518_3551" x1="131.039" y1="35.2138" x2="160.487" y2="134.605" gradientUnits="userSpaceOnUse">
<stop stop-color="#E200E8"/>
<stop offset="1" stop-color="#FA5454"/>
</linearGradient>
<linearGradient id="paint2_linear_5518_3551" x1="78.1479" y1="165.547" x2="156.912" y2="152.608" gradientUnits="userSpaceOnUse">
<stop stop-color="#54D6FF"/>
<stop offset="0.546875" stop-color="#C275FF"/>
<stop offset="1" stop-color="#F36AFF"/>
</linearGradient>
<linearGradient id="paint3_linear_5518_3551" x1="243.274" y1="143.241" x2="204.693" y2="203.707" gradientUnits="userSpaceOnUse">
<stop stop-color="#B2FF0F"/>
<stop offset="1" stop-color="#76FFEF"/>
</linearGradient>
<linearGradient id="paint4_linear_5518_3551" x1="243.695" y1="74.4963" x2="253.235" y2="140.996" gradientUnits="userSpaceOnUse">
<stop stop-color="#FF6C56"/>
<stop offset="1" stop-color="#FF9344"/>
</linearGradient>
<linearGradient id="paint5_linear_5518_3551" x1="92.3072" y1="45.2456" x2="209.724" y2="205.987" gradientUnits="userSpaceOnUse">
<stop stop-color="#FFB78F"/>
<stop offset="1" stop-color="#DB73FF"/>
</linearGradient>
<linearGradient id="paint6_linear_5518_3551" x1="170.602" y1="47.9807" x2="187.865" y2="26.3054" gradientUnits="userSpaceOnUse">
<stop stop-color="#FE8686"/>
<stop offset="1" stop-color="#905BFF"/>
</linearGradient>
<linearGradient id="paint7_linear_5518_3551" x1="154.047" y1="26.0947" x2="165.972" y2="43.7718" gradientUnits="userSpaceOnUse">
<stop stop-color="#7673FF"/>
<stop offset="1" stop-color="#42F4FF"/>
</linearGradient>
<linearGradient id="paint8_linear_5518_3551" x1="140.719" y1="26.0947" x2="150.259" y2="41.5271" gradientUnits="userSpaceOnUse">
<stop stop-color="#FB2000"/>
<stop offset="1" stop-color="#FF7C1E"/>
</linearGradient>
</defs>
</svg>
