<svg width="514" height="451" viewBox="0 0 514 451" fill="none" xmlns="http://www.w3.org/2000/svg">
<path fill-rule="evenodd" clip-rule="evenodd" d="M155.678 349.094C185.431 351.558 5.64214 462.428 -21.508 450.034C-55.386 434.567 13.9688 261.912 -7.3009 231.388C-27.8338 201.92 -8.37572 160.775 1.47375 126.255C10.2722 95.4187 26.4915 68.5414 46.3535 43.3413C67.1041 17.0139 86.3957 6.18805 119.589 1.23328C152.956 -3.74727 177.324 7.1934 208.89 19.0798C237.201 29.7409 277.166 18.2443 294.55 42.9631C312.289 68.1872 512.441 74.2224 514.001 105C515.359 131.788 314.077 186.546 303.07 211.015C292.067 235.477 257.135 235.995 235.796 252.287C211.732 270.66 125.483 346.594 155.678 349.094Z" fill="url(#paint0_linear_5576_3304)"/>
<defs>
<linearGradient id="paint0_linear_5576_3304" x1="363.11" y1="451" x2="136.574" y2="0.628192" gradientUnits="userSpaceOnUse">
<stop stop-color="#B2FF0F"/>
<stop offset="1" stop-color="#76FFEF"/>
</linearGradient>
</defs>
</svg>
