<svg width="335" height="175" viewBox="0 0 335 175" fill="none" xmlns="http://www.w3.org/2000/svg">
<path fill-rule="evenodd" clip-rule="evenodd" d="M55.02 139.132C62.6448 139.999 16.5709 179.022 9.61324 174.66C0.931449 169.216 6.48058 131.333 1.02987 120.589C-4.23202 110.217 12.2554 109.852 14.7795 97.7019C17.0342 86.8482 19.0971 77.5434 24.1871 68.6736C29.5047 59.407 31.6012 57.9379 40.1076 56.194C48.6583 54.4409 60.5672 18.7911 68.6564 22.9748C75.9117 26.7272 274.306 -7.2704 278.76 1.43002C283.306 10.3083 334.598 12.4325 334.998 23.2655C335.346 32.6942 283.764 51.9675 280.944 60.5802C278.124 69.1901 157.744 91.9675 152.275 97.7019C146.108 104.169 47.282 138.252 55.02 139.132Z" fill="url(#paint0_linear_5591_3478)"/>
<defs>
<linearGradient id="paint0_linear_5591_3478" x1="242.248" y1="175" x2="179.086" y2="-23.9151" gradientUnits="userSpaceOnUse">
<stop stop-color="#B2FF0F"/>
<stop offset="1" stop-color="#76FFEF"/>
</linearGradient>
</defs>
</svg>
