<svg width="355" height="158" viewBox="0 0 355 158" fill="none" xmlns="http://www.w3.org/2000/svg">
<path fill-rule="evenodd" clip-rule="evenodd" d="M58.5474 89.3824C64.2959 94.4662 4.17128 100.006 0.974202 92.4412C-3.01513 83.0023 23.2594 55.153 24.957 43.2256C26.5957 31.7114 40.3107 40.8692 49.3474 32.3641C57.4197 24.7666 64.4466 18.3278 73.7036 13.9815C83.3747 9.44087 85.9346 9.43995 93.903 12.8905C101.913 16.359 132.116 -6.01302 136.342 2.05383C140.133 9.28909 322.148 95.2339 320.807 104.916C319.439 114.796 360.236 145.956 354.35 155.059C349.227 162.983 295.919 149.184 288.668 154.621C281.42 160.057 169.746 109.668 161.977 111.228C153.216 112.989 52.7136 84.2232 58.5474 89.3824Z" fill="url(#paint0_linear_5591_3480)"/>
<defs>
<linearGradient id="paint0_linear_5591_3480" x1="191.342" y1="226.153" x2="253.696" y2="26.9837" gradientUnits="userSpaceOnUse">
<stop stop-color="#B2FF0F"/>
<stop offset="1" stop-color="#76FFEF"/>
</linearGradient>
</defs>
</svg>
