<svg width="337" height="451" viewBox="0 0 337 451" fill="none" xmlns="http://www.w3.org/2000/svg">
<path fill-rule="evenodd" clip-rule="evenodd" d="M186.677 349.094C216.431 351.558 36.6412 462.428 9.49109 450.034C-24.3869 434.567 44.9679 261.912 23.6982 231.388C3.1653 201.92 22.6234 160.775 32.4729 126.255C41.2713 95.4187 57.4905 68.5414 77.3526 43.3413C98.1032 17.0139 117.395 6.18805 150.589 1.23328C183.955 -3.74728 208.323 7.19339 239.889 19.0798C268.2 29.7409 308.166 18.2443 325.549 42.9631C343.289 68.1872 318.718 102.611 320.278 133.389C321.636 160.177 345.076 186.546 334.069 211.015C323.066 235.477 288.134 235.995 266.795 252.287C242.731 270.66 156.482 346.594 186.677 349.094Z" fill="url(#paint0_linear_5608_3507)"/>
<defs>
<linearGradient id="paint0_linear_5608_3507" x1="243.694" y1="451" x2="-32.5573" y2="111.401" gradientUnits="userSpaceOnUse">
<stop stop-color="#B2FF0F"/>
<stop offset="1" stop-color="#76FFEF"/>
</linearGradient>
</defs>
</svg>
