<svg width="594" height="1191" viewBox="0 0 594 1191" fill="none" xmlns="http://www.w3.org/2000/svg">
<path fill-rule="evenodd" clip-rule="evenodd" d="M322.5 0.207578C267.673 -4.34489 238.107 67.2545 188.078 90.1572C125.651 118.735 55.8732 416.798 16.6795 473.202C-21.1565 527.651 14.6989 603.678 32.8485 667.464C49.0613 724.443 78.9486 774.106 115.548 820.671C153.785 869.318 166.334 1181.65 227.5 1190.8C288.984 1200 356.888 887.464 415.054 865.501C467.223 845.801 540.867 867.044 572.9 821.369C605.588 774.761 560.311 711.153 563.186 654.282C565.689 604.784 608.881 556.06 588.599 510.845C568.323 465.646 503.955 464.688 464.634 434.584C420.291 400.634 378.14 4.82758 322.5 0.207578Z" fill="url(#paint0_linear_5539_3686)"/>
<defs>
<linearGradient id="paint0_linear_5539_3686" x1="496.414" y1="0.000482853" x2="-75.8659" y2="68.9929" gradientUnits="userSpaceOnUse">
<stop stop-color="#86AFFE"/>
<stop offset="0.507812" stop-color="#A57AFF"/>
<stop offset="1" stop-color="#FB84FF"/>
</linearGradient>
</defs>
</svg>
