<svg width="154" height="248" viewBox="0 0 154 248" fill="none" xmlns="http://www.w3.org/2000/svg">
<path fill-rule="evenodd" clip-rule="evenodd" d="M74.8797 12.6544C95.2623 11.3808 116.527 -8.07211 134.43 3.85101C152.205 15.6884 103.899 38.3748 104.925 63C105.827 84.6227 140.865 106.336 139.601 127.931C138.168 152.412 159.46 175.366 152.415 198.362C145.394 221.28 124.148 233.977 104.925 241.125C85.5944 248.313 61.4895 253.242 45.5658 238.092C29.1475 222.47 36.4953 189.645 27.0551 167.035C20.7768 151.998 2.76918 146.253 0.292324 129.658C-2.19106 113.019 11.8848 99.6698 14.5225 83.0663C18.3555 58.9389 4.5563 28.0618 19.1341 11.0556C32.8287 -4.92036 55.9334 13.8384 74.8797 12.6544Z" fill="url(#paint0_linear_5518_3498)"/>
<defs>
<linearGradient id="paint0_linear_5518_3498" x1="25.8084" y1="14.9446" x2="196.352" y2="169.099" gradientUnits="userSpaceOnUse">
<stop stop-color="#7673FF"/>
<stop offset="1" stop-color="#42F4FF"/>
</linearGradient>
</defs>
</svg>
