<svg width="121" height="153" viewBox="0 0 121 153" fill="none" xmlns="http://www.w3.org/2000/svg">
<path fill-rule="evenodd" clip-rule="evenodd" d="M56.6278 7.80696C72.0422 7.0212 88.1233 -4.97999 101.663 2.37581C115.105 9.67872 120.202 27.5747 120.978 42.7668C121.659 56.1066 106.53 65.6023 105.573 78.9254C104.489 94.0283 120.592 108.189 115.264 122.377C109.955 136.516 93.8869 144.349 79.35 148.758C64.7308 153.193 46.5015 156.234 34.4592 146.887C22.0429 137.25 27.5996 116.999 20.4605 103.05C15.7126 93.7728 2.09426 90.2284 0.221141 79.9904C-1.65692 69.7254 8.98794 61.4898 10.9827 51.2465C13.8814 36.3615 3.44577 17.3123 14.4702 6.82056C24.8267 -3.03556 42.2997 8.53735 56.6278 7.80696Z" fill="url(#paint0_linear_5518_3500)"/>
<defs>
<linearGradient id="paint0_linear_5518_3500" x1="20.298" y1="9.21987" x2="124.996" y2="129.865" gradientUnits="userSpaceOnUse">
<stop stop-color="#7673FF"/>
<stop offset="1" stop-color="#42F4FF"/>
</linearGradient>
</defs>
</svg>
