<svg width="0" height="0" class="hidden">
  <symbol fill="none" xmlns="http://www.w3.org/2000/svg" viewBox="0 0 54 48" id="Twitter">
    <path fill-rule="evenodd" clip-rule="evenodd" d="M35.5623 0.107484C33.0598 0.417739 30.4543 1.83513 28.6185 3.88471C27.6537 4.96196 27.1591 5.72826 26.5194 7.1374C25.7114 8.91716 25.4122 10.2484 25.3405 12.3833L25.2836 14.0789L24.6905 14.0036C24.083 13.9264 21.85 13.4861 20.7161 13.2201C19.6972 12.9808 19.1958 13.3103 19.1636 14.2403C19.1397 14.9272 19.5431 15.2349 20.9431 15.5978C22.5941 16.0256 24.7439 16.3608 26.0207 16.3894C27.1223 16.414 27.1255 16.4133 27.3924 16.0786C27.6357 15.7732 27.6541 15.68 27.5948 15.0478C27.4337 13.3267 27.4082 11.8992 27.5242 11.0892C27.7974 9.18321 28.6891 7.17669 29.9027 5.73765C31.9766 3.27852 35.1527 1.96878 38.0558 2.3757C40.2249 2.67977 41.7995 3.45271 43.4344 5.01601C43.8412 5.40495 44.281 5.77911 44.4118 5.84748C44.7453 6.02168 45.7799 5.79308 47.6066 5.14154C48.4211 4.85109 49.0876 4.64552 49.0876 4.68491C49.0876 4.86495 47.7797 6.27616 47.1849 6.73805C46.0879 7.58979 45.9282 7.76112 45.859 8.16117C45.7836 8.59671 46.0141 9.18149 46.3344 9.36725C46.6491 9.54981 47.3411 9.50583 48.6391 9.22089L49.8285 8.95977L49.3788 9.46346C49.1314 9.74038 48.4662 10.3759 47.9005 10.8756C47.3348 11.3753 46.8236 11.8819 46.7646 12.0015C46.7055 12.1211 46.6565 12.8536 46.6555 13.6293C46.6386 27.934 38.3872 40.3854 26.291 44.36C22.0422 45.756 17.3945 46.1107 12.8777 45.3838C10.7765 45.0457 7.67224 44.0904 6.03652 43.2786L5.39449 42.9599L6.02849 42.8791C9.55226 42.4304 13.1089 41.0322 15.9583 38.9757C17.6195 37.7766 17.8103 37.5704 17.8103 36.9743C17.8103 36.6022 17.744 36.4242 17.5118 36.1725C17.2619 35.9018 17.0942 35.8372 16.4815 35.7758C14.6361 35.5912 12.7169 34.8568 11.4233 33.8404C10.5907 33.1863 9.59378 32.0636 9.01864 31.1325L8.48714 30.2719L9.58248 30.2005C11.8677 30.0514 12.6615 29.6712 12.6615 28.7258C12.6615 28.0349 12.3783 27.8026 10.9264 27.3025C9.26611 26.7305 8.20628 26.021 6.97949 24.6604C5.99764 23.5714 5.37833 22.5713 4.88698 21.2815C4.62535 20.5946 4.25319 19.2158 4.31236 19.1527C4.32642 19.1378 4.76578 19.2512 5.28883 19.4049C5.81188 19.5585 6.70011 19.7161 7.26268 19.7552L8.28553 19.8264L8.60992 19.4748C8.86944 19.1935 8.93432 19.0265 8.93432 18.6402C8.93432 18.117 8.91361 18.0907 7.66632 17.0186C6.33672 15.8757 5.07549 13.7262 4.57833 11.7556C4.37576 10.9525 4.33815 10.5224 4.33952 9.02711C4.34111 7.5118 4.37777 7.1129 4.59016 6.30216L4.8389 5.35238L6.01486 6.59397C7.37468 8.0298 8.71612 9.25662 9.98834 10.2279C11.0911 11.0698 11.5184 11.1359 12.0094 10.5401C12.6153 9.80521 12.3927 9.27346 11.0366 8.21671C9.33955 6.89449 7.62332 5.19502 5.86904 3.09974C5.12684 2.2133 5.05118 2.15455 4.65483 2.15741C4.41645 2.15924 4.13294 2.24686 4.00466 2.35841C3.74789 2.58173 3.09012 3.95503 2.78527 4.90412C1.97492 7.42704 1.96678 10.76 2.76499 13.1686C3.09614 14.1677 3.66537 15.4243 4.09268 16.0992C4.26217 16.3668 4.37291 16.5859 4.33868 16.5859C4.30454 16.5859 4.09015 16.4828 3.86233 16.3569C3.25211 16.0195 2.75083 16.0551 2.37486 16.4626C2.09316 16.7679 2.066 16.8668 2.066 17.5877C2.066 19.3493 2.62149 21.6456 3.45837 23.343C4.08624 24.6166 4.8203 25.6282 5.95273 26.7801C6.866 27.709 6.9367 27.8096 6.67676 27.8096C6.3382 27.8096 5.90877 28.232 5.80892 28.6634C5.6705 29.2612 6.68003 31.6456 7.65364 33.0206C9.05119 34.9942 11.1872 36.6819 13.161 37.3718C13.4806 37.4835 13.7821 37.5997 13.8309 37.6301C14.1228 37.8114 10.8568 39.365 9.06165 39.8989C6.91429 40.5375 5.81853 40.6798 2.99365 40.6873C0.530035 40.6938 0.482907 40.6984 0.24632 40.9548C-0.0343297 41.2589 -0.088114 42.0826 0.152277 42.3965C0.233006 42.502 0.803605 42.9163 1.42027 43.3173C5.1448 45.7393 9.34916 47.2518 14.0591 47.8639C15.4429 48.0438 19.5851 48.0458 20.9275 47.8671C26.318 47.1501 30.5905 45.5264 34.5776 42.6796C43.0469 36.6323 48.338 26.2512 48.738 14.8965L48.8036 13.0355L49.1658 12.7361C50.3962 11.7188 52.2081 9.65414 53.3753 7.9391C53.9094 7.15436 53.999 6.95164 54 6.52617C54.0008 6.12326 53.9452 5.97747 53.7045 5.75311C53.2915 5.36807 52.8335 5.39876 51.7071 5.88722C51.1866 6.11296 50.7443 6.27994 50.7244 6.25829C50.7045 6.23665 50.8817 5.91024 51.1183 5.53288C51.7647 4.5019 52.4968 2.76292 52.5535 2.12374C52.5968 1.63459 52.5678 1.53037 52.3047 1.23272C51.8646 0.73498 51.4067 0.774491 50.3281 1.40336C49.0167 2.16795 47.9059 2.66648 46.4685 3.13559L45.1707 3.55911L44.6724 3.10535C42.8338 1.43108 40.6012 0.383151 38.2743 0.101872C37.1389 -0.0353317 36.7064 -0.0344155 35.5623 0.107484ZM15.1986 11.2864C14.8428 11.3566 14.429 11.9583 14.429 12.4057C14.429 12.6809 14.5206 12.8882 14.7541 13.1413C15.7139 14.1815 17.1814 12.7438 16.2517 11.6741C15.9535 11.3311 15.6112 11.205 15.1986 11.2864ZM38.5128 28.0298C38.2871 28.2745 38.2039 28.4744 38.2039 28.7724C38.2039 29.7429 39.3267 30.2679 39.9522 29.5899C40.5609 28.9303 40.0756 27.6951 39.2077 27.6951C38.9219 27.6951 38.7414 27.782 38.5128 28.0298ZM36.4604 31.2271C36.2861 31.3425 35.9703 31.6645 35.7589 31.9424C34.5922 33.476 32.556 35.3867 30.6891 36.6998C29.3274 37.6576 29.2223 37.7762 29.2223 38.3549C29.2223 38.9728 29.6687 39.4914 30.2005 39.4914C31.0107 39.4914 33.9389 37.2089 36.0526 34.9298C38.1695 32.6471 38.4273 32.0751 37.6742 31.3313C37.3008 30.9627 36.9105 30.9291 36.4604 31.2271Z" fill="white"></path>
  </symbol>
  <symbol fill="none" xmlns="http://www.w3.org/2000/svg" viewBox="0 0 50 50" id="discord">
    <path fill-rule="evenodd" clip-rule="evenodd" d="M4.34839 0.113685C4.08 0.164223 3.50671 0.376344 3.07436 0.585044C1.58873 1.30235 0.394927 2.85503 0.10965 4.44125C-0.0365501 5.25376 -0.0365501 44.7951 0.10965 45.6076C0.450459 47.5028 1.93042 49.1423 3.9092 49.817C4.42705 49.9935 5.16957 50 24.9902 50C44.8108 50 45.5533 49.9935 46.0711 49.817C47.4093 49.3607 48.3636 48.6315 49.0848 47.5138C49.7171 46.5341 49.8911 45.8979 49.9493 44.3548L49.9706 43.792C49.9866 43.3654 49.6451 43.0108 49.2182 43.0108C48.7826 43.0108 48.4258 43.3567 48.4122 43.7921L48.3975 44.2686C48.3595 45.4862 48.3467 45.55 47.997 46.2588C47.5613 47.1415 46.9936 47.6972 46.0887 48.1266C45.6594 48.3303 45.1903 48.436 44.7151 48.436H24.9902H5.26522C4.79008 48.436 4.32089 48.3303 3.89163 48.1266C2.98427 47.6961 2.41919 47.1419 1.9802 46.2522C1.7404 45.7663 1.61567 45.2318 1.61567 44.6899V25.0295V5.26781C1.61567 4.79216 1.72117 4.32244 1.92457 3.89247C2.35331 2.98612 2.90805 2.4175 3.78945 1.98113C4.49713 1.63089 4.56076 1.61808 5.77643 1.58006L6.2622 1.56493C6.69134 1.55157 7.03231 1.19983 7.03231 0.770479C7.03231 0.346204 6.68612 0.00345194 6.26187 0.00768232L5.93434 0.0109482C5.33051 0.016911 4.61678 0.0632454 4.34839 0.113685ZM8.59386 0.782014C8.59386 1.21322 8.94343 1.56403 9.37464 1.56403C9.80585 1.56403 10.1554 1.21322 10.1554 0.782014C10.1554 0.350803 9.80585 0 9.37464 0C8.94343 0 8.59386 0.350803 8.59386 0.782014ZM11.717 0.780938C11.717 1.21243 12.0664 1.56241 12.4979 1.56306L28.5281 1.58739L44.7177 1.61196C45.1266 1.61258 45.5299 1.70673 45.8968 1.88719C47.201 2.52864 48.0311 4.18074 48.3132 6.69599C48.3759 7.25503 48.4122 13.75 48.4127 24.5112L48.4134 40.6634C48.4134 41.096 48.7642 41.4467 49.1968 41.4467C49.6292 41.4467 49.9795 41.0958 49.9787 40.6634L49.9483 23.8759C49.9166 6.41496 49.9151 6.29922 49.7103 5.37634C49.0176 2.25347 47.6696 0.564907 45.5052 0.108993C45.1365 0.0312805 40.2086 0 28.3525 0H12.4979C12.0666 0 11.717 0.349638 11.717 0.780938ZM20.1103 8.67097C16.8627 8.86862 12.7834 9.59404 11.5237 10.1978C10.7143 10.586 9.53421 11.7416 9.14675 12.5258C8.90432 13.0164 8.18991 15.3467 8.25705 15.4279C8.29385 15.4722 9.70354 15.8322 9.73145 15.8042C9.74394 15.7918 9.88946 15.2828 10.055 14.6731C10.2205 14.0635 10.4047 13.4709 10.4642 13.3562C10.7551 12.7959 11.2937 12.1919 11.8103 11.8463C12.444 11.4225 13.5714 11.1015 15.6549 10.7514C17.5512 10.4329 17.5591 10.4409 16.2352 11.3326C14.8031 12.2973 13.4002 13.506 13.3141 13.8496C13.225 14.2053 13.3808 14.5816 13.6889 14.7547C13.9961 14.9275 14.0693 14.9105 15.9624 14.2257C19.4011 12.9821 23.372 12.3581 26.2833 12.6039C29.0535 12.8378 31.7358 13.4058 34.2619 14.2934C35.0402 14.5669 35.8266 14.7913 36.0093 14.7921C36.4198 14.7938 36.7018 14.4827 36.7018 14.0283C36.7018 13.7604 36.5953 13.6085 36.0413 13.0861C35.2532 12.343 34.1206 11.4792 33.2712 10.9734C32.4851 10.5055 32.6468 10.4719 34.3305 10.754C37.2915 11.25 38.3388 11.6787 39.0888 12.7022C39.5751 13.3656 39.6605 13.6061 40.2609 16.0046C41.3776 20.4653 42.1503 24.8094 42.6019 29.1655C42.6791 29.9109 42.7557 30.5299 42.772 30.5413C42.8276 30.5802 44.2012 30.449 44.2485 30.4004C44.3225 30.3242 44.0472 27.8382 43.6801 25.2688C42.9762 20.3418 41.5673 14.0601 40.8363 12.5904C40.3459 11.6043 39.4823 10.7361 38.5192 10.2607C36.833 9.42845 31.5665 8.60723 27.8893 8.60313C27.1073 8.60225 27.0095 8.62356 26.7913 8.84213C26.5067 9.12708 26.4773 9.56501 26.7225 9.86393C26.8341 9.9999 27.1979 10.1533 27.7717 10.3063C28.2548 10.435 28.9575 10.6557 29.3332 10.7967C30.1231 11.0929 31.5451 11.7469 31.4992 11.7928C31.482 11.81 30.9218 11.7181 30.2543 11.5888C28.1118 11.1735 26.5978 11.0128 24.795 11.0093C22.7001 11.0053 21.3759 11.1719 18.6464 11.7831C18.261 11.8694 19.2785 11.3514 20.3022 10.9402C20.814 10.7345 21.6499 10.4551 22.1599 10.3192C22.7739 10.1555 23.1447 10.0018 23.2578 9.86393C23.5031 9.56501 23.4736 9.12708 23.189 8.84213C22.9594 8.61202 22.9021 8.60293 21.7983 8.62023C21.1651 8.63021 20.4055 8.65298 20.1103 8.67097ZM7.67694 17.7389C7.58236 18.1405 7.52986 18.5093 7.56031 18.5586C7.60745 18.6349 8.74748 18.8992 8.95282 18.8813C9.02543 18.8751 9.38274 17.4736 9.32633 17.4167C9.30183 17.3921 8.72425 17.2326 7.85534 17.0105C7.85173 17.0096 7.77141 17.3373 7.67694 17.7389ZM7.12981 20.259C7.12981 20.2724 7.00098 20.9873 6.84355 21.8475C6.20468 25.3387 5.77252 28.8661 5.55605 32.3558C5.42039 34.5416 5.50335 35.1732 6.08093 36.352C6.44692 37.0989 7.41918 38.1431 8.13798 38.561C9.02495 39.0767 12.4912 40.1205 14.9377 40.6085C17.0661 41.0331 20.4345 41.4467 21.764 41.4467C22.4665 41.4467 22.5216 41.3354 22.9991 38.9557C23.2353 37.778 23.4286 36.7399 23.4286 36.6487C23.4286 36.5576 23.3485 36.384 23.2506 36.2629C23.0981 36.0741 22.9078 36.0237 21.9235 35.9105C20.8091 35.7824 18.9817 35.4087 19.0644 35.3258C19.0869 35.3033 19.4082 35.3477 19.7786 35.4243C21.4486 35.7702 23.0059 35.9176 24.9902 35.9176C26.9744 35.9176 28.5318 35.7702 30.2018 35.4243C30.5721 35.3477 30.8934 35.3033 30.916 35.3258C30.9986 35.4087 29.1712 35.7824 28.0569 35.9105C27.0725 36.0237 26.8823 36.0741 26.7297 36.2629C26.6318 36.384 26.5517 36.5576 26.5517 36.6487C26.5517 36.7399 26.7451 37.778 26.9812 38.9557C27.4587 41.3354 27.5138 41.4467 28.2163 41.4467C30.4793 41.4467 35.1396 40.7053 38.0893 39.8761C40.9577 39.0696 41.9114 38.6576 42.7683 37.8548C44.107 36.6007 44.647 35.0055 44.4671 32.8368L44.461 32.7625C44.4265 32.3468 44.0653 32.0354 43.6491 32.0626C43.2273 32.0901 42.8992 32.4402 42.8991 32.8629L42.8989 33.4311C42.8985 35.0467 42.7277 35.5741 41.9228 36.445C41.2386 37.185 40.7724 37.4248 38.8769 38.011C35.8362 38.9515 31.9462 39.6773 29.2844 39.8007C28.9749 39.8151 28.7006 39.603 28.6365 39.2999L28.5316 38.8033C28.4127 38.2411 28.3138 37.7129 28.312 37.6295C28.3092 37.5138 28.4998 37.4503 29.1209 37.3604C31.9924 36.9446 34.9438 35.5411 37.0212 33.6034C37.3871 33.2621 37.4826 33.1078 37.4826 32.8578C37.4826 32.4808 37.1109 32.0616 36.7794 32.0645C36.6562 32.0656 35.9406 32.2644 35.1891 32.5064C31.5683 33.6718 27.6221 34.4088 25.0042 34.4085C22.3384 34.4083 18.3941 33.6733 14.7483 32.4976C14.0065 32.2583 13.3045 32.0626 13.1882 32.0626C12.8664 32.0626 12.4977 32.4876 12.4977 32.8587C12.4977 33.1177 12.5995 33.2703 13.0589 33.7006C13.8341 34.4266 15.5904 35.5872 16.6976 36.1052C17.904 36.6695 19.3113 37.1043 20.6188 37.3167C21.2417 37.4179 21.6717 37.5332 21.6718 37.5992C21.6719 37.7255 21.2993 39.5839 21.2425 39.7403C21.2002 39.857 19.9871 39.7782 18.0608 39.5335C14.948 39.1381 10.1446 37.9094 8.93438 37.199C7.99022 36.6449 7.21833 35.4727 7.06637 34.3625C6.95569 33.5539 7.32129 29.1625 7.76946 25.9164C7.98573 24.35 8.50661 21.2571 8.6533 20.668C8.69819 20.4877 8.6368 20.4538 8.0763 20.3503C7.47706 20.2398 7.13 20.2063 7.12981 20.259ZM16.0222 21.2689C13.5476 21.9355 12.0166 24.5018 12.6472 26.9265C13.2514 29.25 15.486 30.7681 17.8082 30.433C19.8846 30.1335 21.5017 28.5196 21.7993 26.45C22.2671 23.1979 19.1707 20.4208 16.0222 21.2689ZM31.6377 21.2689C29.1631 21.9355 27.6321 24.5018 28.2627 26.9265C28.8669 29.25 31.1015 30.7681 33.4237 30.433C35.5001 30.1335 37.1172 28.5196 37.4149 26.45C37.8826 23.1979 34.7862 20.4208 31.6377 21.2689ZM18.4607 22.9634C19.1364 23.2815 19.5576 23.6839 19.9202 24.3573C20.2238 24.9213 20.2532 25.0485 20.2546 25.8065C20.2559 26.5771 20.2307 26.6834 19.9071 27.2727C18.4061 30.0058 14.3343 29.1381 14.0825 26.0317C13.9684 24.6239 14.821 23.341 16.2069 22.835C16.7887 22.6226 17.8673 22.6841 18.4607 22.9634ZM34.0763 22.9634C34.7519 23.2815 35.1732 23.6839 35.5357 24.3573C35.8393 24.9213 35.8687 25.0485 35.8701 25.8065C35.8715 26.5771 35.8463 26.6834 35.5226 27.2727C34.0216 30.0058 29.9499 29.1381 29.6981 26.0317C29.584 24.6239 30.4366 23.341 31.8225 22.835C32.4042 22.6226 33.4829 22.6841 34.0763 22.9634Z" fill="white"></path>
  </symbol>
  <symbol fill="none" xmlns="http://www.w3.org/2000/svg" viewBox="0 0 50 50" id="Instagram">
    <path fill-rule="evenodd" clip-rule="evenodd" d="M12.9895 0.0951197C8.10505 0.640437 3.76282 3.70136 1.5192 8.18072C0.799942 9.61653 0.292182 11.3828 0.105678 13.0971C-0.0352259 14.393 -0.0352259 35.5925 0.105678 36.8884C0.854136 43.769 6.22917 49.1456 13.1078 49.8943C14.4033 50.0352 35.5967 50.0352 36.8922 49.8943C40.2441 49.5295 43.1733 48.1405 45.5915 45.7694C48.0445 43.3642 49.5215 40.3156 49.8943 36.8884C50.0352 35.5925 50.0352 14.393 49.8943 13.0971C49.5296 9.74419 48.1411 6.81415 45.7706 4.39524C43.3661 1.94156 40.3184 0.464134 36.8922 0.0912127C35.7522 -0.0328339 14.1041 -0.02922 12.9895 0.0951197ZM37.7898 2.175C39.7742 2.6495 41.3804 3.36595 42.8783 4.44476C44.8681 5.87784 46.6528 8.34891 47.3928 10.6956C48.029 12.713 47.9957 11.9244 47.9957 24.9928C47.9957 36.0675 47.9839 36.9148 47.8193 37.6782C47.5585 38.8883 47.1915 39.9853 46.753 40.8649C44.9239 44.5341 41.797 46.9311 37.6818 47.8187C36.9186 47.9833 36.0715 47.9951 25 47.9951C13.9285 47.9951 13.0814 47.9833 12.3182 47.8187C9.59543 47.2315 7.32476 46.0006 5.53715 44.1428C3.83381 42.3727 2.73734 40.2608 2.18066 37.6782C2.01613 36.9148 2.00431 36.0675 2.00431 24.9928C2.00431 13.918 2.01613 13.0707 2.18066 12.3073C2.73734 9.72466 3.83381 7.61284 5.53715 5.84268C7.50355 3.79904 10.238 2.41919 13.0515 2.05066C13.4231 2.00202 18.9234 1.97125 25.3906 1.98161C36.2224 1.99899 37.1117 2.01286 37.7898 2.175ZM12.9717 4.43207C10.9153 4.77822 9.07517 5.70135 7.54583 7.15425C5.86856 8.74762 4.81574 10.7406 4.44303 13.0276C4.22996 14.335 4.22996 35.6505 4.44303 36.9579C5.06113 40.7507 7.70666 43.9028 11.292 45.1183C12.7944 45.6276 13.5448 45.699 17.4064 45.6994L20.8957 45.6998L21.2124 45.4167C21.6397 45.0349 21.6601 44.4634 21.2608 44.0637L20.9924 43.7951L17.113 43.7403L13.2336 43.6856L12.3548 43.4172C9.51282 42.5491 7.46899 40.5067 6.57503 37.6416L6.30075 36.7625V24.9928V13.223L6.57503 12.3439C7.46811 9.48155 9.49329 7.45578 12.3548 6.56244L13.2336 6.28808H25H36.7664L37.6452 6.56244C40.5067 7.45578 42.5319 9.48155 43.425 12.3439L43.6993 13.223V24.9928V36.7625L43.425 37.6416C42.5311 40.5064 40.489 42.5472 37.6452 43.4177L36.7664 43.6867L33.1046 43.7181C31.0907 43.7355 29.3403 43.7726 29.2149 43.8008C29.0894 43.8288 28.8808 43.9663 28.7511 44.1063C28.3311 44.5596 28.4889 45.2932 29.0703 45.5907C29.4111 45.765 35.8532 45.7364 36.9617 45.5557C41.404 44.8313 44.8328 41.4015 45.557 36.9579C45.77 35.6505 45.77 14.335 45.557 13.0276C44.8328 8.58401 41.404 5.15417 36.9617 4.42982C35.7457 4.23154 14.1509 4.23359 12.9717 4.43207ZM36.6492 8.66284C34.052 9.58489 33.2872 12.8451 35.2156 14.7741C37.0357 16.5946 40.0754 16.0298 41.1985 13.6625C41.4177 13.2006 41.4534 12.9953 41.4534 12.1974C41.4534 11.362 41.4233 11.2062 41.1512 10.6346C40.5336 9.33689 39.3566 8.55852 37.9381 8.50959C37.3714 8.49005 37.0175 8.53215 36.6492 8.66284ZM38.5027 10.5737C40.0606 11.2405 39.7921 13.5585 38.1172 13.9038C37.0455 14.1246 35.865 12.9437 36.0858 11.8717C36.1835 11.3974 36.5798 10.8558 36.9859 10.6413C37.417 10.4137 38.0616 10.3849 38.5027 10.5737ZM23.8282 11.5823C21.9068 11.7335 18.7751 12.7762 18.457 13.3708C18.2358 13.7843 18.3114 14.2648 18.6448 14.5627C19.0374 14.9136 19.2731 14.9052 20.2453 14.5061C22.1629 13.719 23.0744 13.5305 25 13.5236C26.425 13.5185 27.4295 13.6607 28.5041 14.0197C32.5075 15.357 35.4111 18.6102 36.2929 22.7462C36.5348 23.8809 36.5358 26.0996 36.2951 27.2281C35.3085 31.8527 31.8611 35.3045 27.2459 36.2889C26.1061 36.5319 23.8939 36.5319 22.7541 36.2889C18.6193 35.4069 15.367 32.5025 14.0301 28.4979C13.6696 27.4179 13.5283 26.4189 13.5344 24.9928C13.543 22.9834 13.8145 21.8213 14.7748 19.685C15.0608 19.0488 15.1042 18.8676 15.0316 18.6141C14.9083 18.1843 14.6418 17.9536 14.2 17.8946C13.6689 17.8238 13.4111 18.0581 12.913 19.0635C10.3725 24.1918 11.4249 30.438 15.5152 34.5084C20.8009 39.7685 29.1991 39.7685 34.4848 34.5084C39.7765 29.2424 39.7765 20.7431 34.4848 15.4771C31.6355 12.6416 27.8676 11.2645 23.8282 11.5823ZM15.9485 15.0492C15.8304 15.1062 15.6626 15.3031 15.5755 15.4867C15.2023 16.2735 15.9106 17.0648 16.7424 16.7902C17.7272 16.4652 17.5381 14.9198 16.5159 14.9389C16.3218 14.9425 16.0664 14.9921 15.9485 15.0492ZM23.4117 16.35C20.7093 16.8626 18.3435 18.666 17.1349 21.1346C16.4544 22.5245 16.2783 23.3177 16.2783 24.9928C16.2783 26.1447 16.3181 26.5549 16.4914 27.1904C17.1588 29.6376 18.9004 31.7603 21.143 32.8598C22.5317 33.5406 23.3251 33.7169 25 33.7169C26.6749 33.7169 27.4683 33.5406 28.857 32.8598C31.0996 31.7603 32.8412 29.6376 33.5086 27.1904C33.6819 26.5549 33.7217 26.1447 33.7217 24.9928C33.7217 23.318 33.5456 22.5249 32.8653 21.1346C31.7671 18.8902 29.6062 17.12 27.197 16.4909C26.1632 16.2209 24.432 16.1565 23.4117 16.35ZM26.3467 18.3079C26.7749 18.3946 27.4994 18.6525 28.027 18.906C28.8161 19.285 29.0809 19.4789 29.7999 20.2042C30.5043 20.9148 30.7187 21.2096 31.0878 21.9748C32.0746 24.0208 32.0746 25.9647 31.0878 28.0107C30.7187 28.7759 30.5043 29.0707 29.7999 29.7813C29.0809 30.5066 28.8161 30.7005 28.027 31.0795C25.9645 32.0703 24.0354 32.0703 21.973 31.0795C21.1839 30.7005 20.9191 30.5066 20.2001 29.7813C19.4957 29.0707 19.2812 28.7759 18.9122 28.0107C18.4303 27.0114 18.1648 25.9395 18.1648 24.9928C18.1648 24.046 18.4303 22.9741 18.9122 21.9748C19.2812 21.2096 19.4957 20.9148 20.2001 20.2042C20.9185 19.4795 21.1845 19.2847 21.973 18.9054C23.4683 18.186 24.8278 18.0003 26.3467 18.3079ZM24.6582 43.835C24.0359 44.1014 23.8714 44.9083 24.3431 45.3801C24.5443 45.5814 24.7049 45.6465 25 45.6465C26.1355 45.6465 26.2672 43.9863 25.1465 43.8C24.9854 43.7731 24.7656 43.7888 24.6582 43.835Z" fill="white"></path>
  </symbol>
  <symbol fill="none" xmlns="http://www.w3.org/2000/svg" viewBox="0 0 50 50" id="LinkedIn">
    <path fill-rule="evenodd" clip-rule="evenodd" d="M1.97651 0.185712C0.994862 0.524546 0.297244 1.29986 0.0851718 2.28775C0.0085169 2.64504 -0.01358 9.2186 0.00763694 25.2954L0.037458 47.8029L0.24337 48.2473C0.544319 48.897 1.00356 49.3701 1.63294 49.6787L2.18849 49.9512L19.8367 49.977C33.0081 49.9962 37.5543 49.9741 37.7584 49.8899C38.0513 49.7692 38.316 49.358 38.316 49.0235C38.316 48.7007 38.0612 48.2913 37.781 48.1638C37.5852 48.0747 33.4058 48.0471 20.1205 48.0471C1.19168 48.0471 2.3199 48.0805 2.06089 47.5127C1.89135 47.1411 1.89135 2.86386 2.06089 2.49222C2.25967 2.05652 2.59718 1.9579 3.89005 1.9579C5.18419 1.9579 5.50068 1.8708 5.71569 1.45551C5.97743 0.949991 5.79596 0.338236 5.31999 0.121656C4.89937 -0.0697313 2.58848 -0.0254974 1.97651 0.185712ZM8.31012 0.141283C7.46252 0.610474 7.81714 1.9579 8.78824 1.9579C9.28366 1.9579 9.76598 1.4809 9.76598 0.990905C9.76598 0.257775 8.95475 -0.215615 8.31012 0.141283ZM12.2211 0.140697C11.5658 0.505016 11.5873 1.53675 12.2565 1.84121C12.4522 1.93027 16.6295 1.9579 29.9074 1.9579C43.1853 1.9579 47.3626 1.98553 47.5584 2.07459C48.13 2.33462 48.0934 0.768076 48.0934 25.0025C48.0934 49.2369 48.13 47.6703 47.5584 47.9304C47.4051 48.0002 46.8301 48.0471 46.1284 48.0471C44.8356 48.0471 44.4981 48.1457 44.2993 48.5814C44.145 48.9194 44.1518 49.1695 44.3245 49.5029C44.5542 49.9464 44.8895 50.0225 46.4495 49.9849C47.7472 49.9536 47.8894 49.9314 48.4045 49.6787C49.0339 49.3701 49.4931 48.897 49.7941 48.2473L50 47.8029V25.0025V2.20202L49.7272 1.64719C49.4181 1.01864 48.9444 0.559991 48.2939 0.259435L47.849 0.0537916L30.1519 0.0322117C15.5741 0.0145376 12.4136 0.0335787 12.2211 0.140697ZM10.9637 7.07985C9.10111 7.50247 7.6302 8.8909 7.08648 10.7394C6.88399 11.4281 6.88399 12.7981 7.08648 13.4868C7.9158 16.3067 10.9213 17.9255 13.6109 17.0013C14.5058 16.6938 14.978 16.3997 15.6437 15.7349C17.2767 14.1042 17.6421 11.8111 16.5979 9.74541C16.2365 9.03034 15.1972 7.94754 14.5616 7.62374C13.3907 7.02732 12.0732 6.82812 10.9637 7.07985ZM13.4528 9.28549C14.116 9.61007 14.6232 10.1282 14.9709 10.8363C15.2824 11.4708 15.2779 12.7473 14.962 13.3958C14.6088 14.1206 14.1199 14.6143 13.4086 14.9639C12.1566 15.5795 10.7743 15.3414 9.78055 14.339C9.1807 13.7341 8.94477 13.1832 8.90175 12.287C8.85902 11.3969 9.0226 10.8235 9.49553 10.2055C10.4538 8.9532 12.0269 8.58751 13.4528 9.28549ZM31.8629 17.9215C30.4751 18.2318 29.4322 18.6642 28.4175 19.3503C28.1089 19.5589 27.8339 19.7296 27.8064 19.7296C27.7789 19.7296 27.7564 19.5935 27.7564 19.427C27.7564 19.003 27.4986 18.5076 27.2094 18.3761C26.8867 18.2292 19.7133 18.2195 19.4402 18.3654C18.9375 18.6341 18.9567 18.1432 18.9567 30.7085V42.3804L19.2419 42.6994L19.5271 43.0183L23.396 43.0459C27.5756 43.0758 27.6811 43.0645 27.9735 42.5535C28.0707 42.3835 28.1095 40.7361 28.1475 35.1577L28.1964 27.9807L28.4852 27.46C28.829 26.8403 29.1854 26.5206 29.8969 26.194C31.2844 25.557 32.955 26.167 33.7038 27.584L33.9651 28.0783L34.0139 35.2776L34.0628 42.4769L34.3339 42.7476L34.6049 43.0183L38.4633 43.0459C42.6319 43.0758 42.7384 43.0644 43.0307 42.5535C43.1295 42.3806 43.1558 40.6441 43.1558 34.2789C43.1558 26.8431 43.142 26.1593 42.9771 25.3946C42.214 21.8573 39.6953 19.1472 36.2107 18.114C35.1067 17.7867 32.9026 17.689 31.8629 17.9215ZM7.78762 18.5498L7.46829 18.8347V30.5847C7.46829 39.9509 7.49371 42.3791 7.59344 42.5535C7.88578 43.0645 7.99128 43.0758 12.1709 43.0459L16.0397 43.0183L16.325 42.6994L16.6102 42.3804V30.7085C16.6102 18.1432 16.6294 18.6341 16.1267 18.3654C16.0067 18.3013 14.5215 18.2649 12.0228 18.2649H8.10695L7.78762 18.5498ZM35.9205 20.0649C37.9638 20.7582 39.4653 22.0441 40.3745 23.8795C41.1709 25.4872 41.1514 25.2425 41.1514 33.6598V41.1142H38.5604H35.9694L35.968 34.7427C35.9664 27.7479 35.9601 27.6614 35.3769 26.5686C34.8087 25.5039 33.6859 24.5691 32.5473 24.2128C31.6778 23.9407 30.3667 23.9426 29.573 24.2172C27.9948 24.7633 26.8888 25.8734 26.3654 27.4366C26.1542 28.0674 26.15 28.1895 26.1161 34.5963L26.0818 41.1142H23.497H20.9122V30.666V20.2178H23.3566H25.8009V21.3456C25.8009 22.6649 25.9093 22.9735 26.4332 23.1461C26.6215 23.2082 26.8717 23.2285 26.9893 23.1912C27.1068 23.154 27.6465 22.6777 28.1886 22.1328C29.1967 21.1195 29.8339 20.6755 30.8937 20.248C31.9124 19.8371 32.585 19.7299 33.9162 19.7661C34.9314 19.7938 35.2708 19.8444 35.9205 20.0649ZM14.6547 30.666V41.1142H12.0637H9.47265V30.666V20.2178H12.0637H14.6547V30.666ZM40.7711 48.1834C39.9235 48.6526 40.2781 50 41.2492 50C41.7446 50 42.227 49.523 42.227 49.033C42.227 48.2999 41.4157 47.8265 40.7711 48.1834Z" fill="white"></path>
  </symbol>
  <symbol fill="none" xmlns="http://www.w3.org/2000/svg" viewBox="0 0 58 50" id="reddit">
    <path fill-rule="evenodd" clip-rule="evenodd" d="M46.3964 0.207697C45.3476 0.522683 44.7612 0.888161 43.9574 1.72793C42.1644 3.60137 41.7774 6.14663 42.9282 8.49716C43.3092 9.27534 44.2879 10.3521 45.0113 10.7893C45.9702 11.3687 46.7639 11.5854 47.9267 11.5854C49.5894 11.5854 50.7896 11.0644 51.966 9.83191C54.1421 7.55209 54.1115 4.04294 51.8953 1.72711C51.4887 1.30226 50.8976 0.819671 50.5818 0.654639C49.303 -0.0135535 47.7023 -0.18443 46.3964 0.207697ZM49.3447 2.65676C50.6007 3.26944 51.2647 4.36505 51.2682 5.83071C51.2698 6.53361 51.2152 6.81868 50.992 7.26947C49.6738 9.93266 46.1796 9.93266 44.8615 7.26947C44.4901 6.51935 44.4728 5.21183 44.8236 4.42221C45.6342 2.59809 47.6281 1.81945 49.3447 2.65676ZM38.698 3.38526C38.1738 4.02751 38.3792 4.86704 39.1408 5.19512C40.2768 5.68449 41.2094 4.26325 40.3404 3.36726C40.0726 3.0912 39.9114 3.02563 39.5003 3.02563C39.0713 3.02563 38.9455 3.08208 38.698 3.38526ZM34.607 3.69464C34.1982 3.79831 32.8987 4.7587 32.2378 5.44548C30.9736 6.75942 30.4629 7.78444 29.5627 10.8146C29.2355 11.9166 28.9305 12.8799 28.8852 12.9555C28.8322 13.044 28.1488 13.1313 26.9692 13.2002C21.5787 13.5158 16.8248 14.8954 12.672 17.3496L11.8218 17.8521L10.8335 17.3514C9.5946 16.7239 8.72808 16.5234 7.2874 16.5311C4.5025 16.5462 2.0519 18.1679 0.761415 20.8496C-0.710669 23.9088 -0.00308043 27.6312 2.49366 29.9606C2.87579 30.3171 3.23072 30.6089 3.28241 30.6089C3.33422 30.6089 3.37684 31.0165 3.37718 31.5147C3.38342 39.958 11.2041 47.2908 22.4812 49.427C25.9955 50.0927 30.7613 50.1884 34.1536 49.6613C37.643 49.1192 42.089 47.7402 42.9094 46.9455C43.2802 46.5864 43.2652 45.8207 42.8795 45.4229C42.4721 45.003 42.1347 44.9775 41.2655 45.3012C38.3295 46.3943 36.8333 46.8261 34.7002 47.1955C28.0418 48.3488 21.0547 47.44 15.5626 44.7065C12.8995 43.381 11.1225 42.1008 9.43964 40.2956C7.49246 38.2065 6.37225 36.1441 5.86066 33.7061C5.64833 32.6945 5.66999 30.2657 5.90011 29.2614C7.0295 24.3338 11.1315 20.1531 17.2901 17.6528C24.4489 14.7465 33.5425 14.7465 40.7013 17.6528C46.8599 20.1531 50.9626 24.3345 52.0912 29.2614C52.3791 30.5184 52.3492 32.8405 52.0281 34.1666C51.5659 36.0748 50.4417 38.1887 49.0196 39.8239C48.6202 40.2831 48.2654 40.8038 48.231 40.981C48.1465 41.4165 48.4738 42.084 48.866 42.2759C49.3932 42.5337 49.8155 42.347 50.5757 41.5193C53.0945 38.777 54.6116 35.0223 54.6142 31.5243C54.6149 30.6335 54.6173 30.6264 54.9953 30.3855C55.9877 29.7532 57.1359 28.099 57.6108 26.6177C58.2373 24.6635 58.1055 22.6679 57.2295 20.8496C55.9367 18.1657 53.4896 16.5462 50.704 16.5311C49.2621 16.5234 48.3957 16.7241 47.1579 17.3527L46.1696 17.8545L45.4328 17.4085C41.7459 15.1771 36.9594 13.6802 32.1414 13.2521C31.6583 13.2092 31.2629 13.1419 31.2629 13.1027C31.2629 12.8454 32.4812 9.15741 32.7425 8.62374C33.1722 7.74599 34.0493 6.77929 35.0047 6.13038C35.436 5.83737 35.8418 5.49573 35.9064 5.37126C36.2047 4.7968 35.9042 3.94581 35.3303 3.73952C35.1321 3.66834 34.9393 3.6161 34.9018 3.62358C34.8643 3.63106 34.7317 3.66297 34.607 3.69464ZM9.1211 19.1041L9.70796 19.3016L8.26013 20.7769C6.14383 22.9334 5.0023 24.6634 4.23622 26.8754C4.03444 27.4583 3.83152 27.9347 3.78527 27.9341C3.63847 27.9324 3.05025 27.0967 2.75824 26.4752C1.81668 24.471 2.31342 21.8278 3.91598 20.3152C4.63388 19.6376 5.68325 19.0744 6.51825 18.9185C7.2518 18.7815 8.40795 18.8639 9.1211 19.1041ZM51.3714 18.9183C55.2069 19.5659 57.0288 24.3799 54.6207 27.5041C54.4388 27.7401 54.2523 27.9335 54.2061 27.9341C54.1599 27.9347 53.957 27.4583 53.7552 26.8754C52.989 24.6629 51.8477 22.9334 49.73 20.7756L48.281 19.299L48.869 19.1166C49.9677 18.7755 50.3477 18.7454 51.3714 18.9183ZM19.6153 23.6599C18.7227 23.9077 18.138 24.2567 17.4824 24.9327C15.7989 26.6684 15.6077 29.2969 17.0212 31.2765C18.7487 33.696 22.1766 33.9311 24.1783 31.7674C25.245 30.6143 25.717 29.1383 25.488 27.6722C25.0346 24.7692 22.3142 22.9106 19.6153 23.6599ZM36.2534 23.6667C33.9454 24.3061 32.4353 26.7217 32.8254 29.1497C33.2512 31.7992 35.752 33.6633 38.2434 33.1884C40.8453 32.6925 42.5869 30.2219 42.1689 27.6202C41.7061 24.7411 38.9717 22.9135 36.2534 23.6667ZM21.8037 26.0373C22.0566 26.1557 22.448 26.4748 22.6733 26.7463C24.5271 28.9792 21.8137 32.1047 19.4331 30.4788C18.3256 29.7225 18.0069 28.0543 18.7565 26.9383C19.4073 25.9699 20.7879 25.5616 21.8037 26.0373ZM38.5962 26.1129C39.4054 26.5287 39.9924 27.4526 39.9909 28.3081C39.9886 29.6922 38.794 30.9595 37.4918 30.9595C36.9633 30.9595 36.2101 30.6151 35.7698 30.172C34.5611 28.9556 34.8499 26.9516 36.3505 26.1434C37.1367 25.72 37.8134 25.7107 38.5962 26.1129ZM19.5296 37.9037C18.9274 38.5247 19.0477 39.2198 19.869 39.8622C21.1914 40.8971 23.5729 41.9642 25.6078 42.434C26.62 42.6677 27.0952 42.7058 28.9957 42.7058C31.4341 42.7058 32.6447 42.5105 34.4418 41.8273C36.0846 41.2028 38.188 39.9876 38.6308 39.4072C38.9489 38.9902 38.9224 38.4197 38.5645 37.9812C38.1141 37.4293 37.549 37.4784 36.5341 38.1576C34.2359 39.6957 31.738 40.4545 28.9869 40.4504C26.2291 40.4463 23.7486 39.691 21.4573 38.1576C20.5099 37.5236 19.9677 37.4521 19.5296 37.9037ZM45.0247 43.3953C44.6006 43.8326 44.5376 44.2093 44.8008 44.7342C45.088 45.3068 45.772 45.4873 46.3408 45.1409C47.3419 44.5312 46.8909 42.998 45.7105 42.998C45.5201 42.998 45.2691 43.1434 45.0247 43.3953Z" fill="white"></path>
  </symbol>
  <symbol fill="none" xmlns="http://www.w3.org/2000/svg" viewBox="0 0 52 48" id="Telegram">
    <path fill-rule="evenodd" clip-rule="evenodd" d="M48.7363 0.181788C46.9931 0.789801 1.13939 19.5295 0.901218 19.7312C-0.431442 20.8599 -0.255966 23.0985 1.22805 23.9003C1.43762 24.0135 4.07057 25.0737 7.079 26.2563C10.0874 27.4388 12.5616 28.4197 12.5772 28.436C12.5926 28.4525 13.5719 31.7426 14.7533 35.7475C15.9346 39.7524 16.9838 43.2006 17.0849 43.4101C17.6741 44.6317 19.063 45.1322 20.1913 44.5295C20.4682 44.3816 22.1602 43.0007 23.9511 41.4608C25.7421 39.9209 27.3177 38.617 27.4522 38.563C27.6312 38.4913 27.7957 38.5169 28.0637 38.6583C28.2654 38.7646 30.9266 40.7612 33.9776 43.0953C37.0286 45.4293 39.7146 47.47 39.9463 47.6302C40.4438 47.9737 41.2585 48.0961 41.8771 47.9199C42.4188 47.7657 43.1724 47.0629 43.3787 46.5198C43.4678 46.2849 45.468 36.3315 47.8236 24.4011C52.5629 0.397111 52.2903 2.06073 51.6454 1.07483C50.9949 0.0803453 49.9481 -0.240926 48.7363 0.181788ZM49.9348 2.49577C49.9713 2.91334 41.5607 45.5159 41.402 45.7173C41.3355 45.8017 41.2475 45.8708 41.2065 45.8708C41.1654 45.8708 38.4183 43.7958 35.1018 41.2596C28.5628 36.2593 28.5274 36.2366 27.4133 36.3578C27.1255 36.3891 26.6869 36.5173 26.4387 36.6426C26.1906 36.768 24.476 38.1714 22.6287 39.7615C20.7813 41.3517 19.2469 42.6522 19.2189 42.6515C19.0001 42.647 18.6591 41.6072 16.6869 34.9281C15.46 30.7728 14.4023 27.2498 14.3365 27.0992C14.2708 26.9485 14.1329 26.77 14.0301 26.7024C13.9274 26.6348 11.2397 25.5584 8.05756 24.3105C4.87548 23.0625 2.21413 21.9644 2.14359 21.8704C2.03906 21.731 2.04435 21.669 2.1722 21.5343C2.35836 21.3381 49.5322 2.12432 49.7541 2.15434C49.8439 2.16646 49.9183 2.30726 49.9348 2.49577ZM39.2664 9.60266C38.2332 10.1636 17.5809 23.6512 17.2508 23.9807C16.6866 24.5439 16.3483 25.3052 16.2912 26.14C16.2471 26.7836 16.3397 27.1947 17.4977 31.4964C18.8389 36.4782 18.9087 36.6574 19.6273 36.971C20.0354 37.1491 20.7556 37.054 21.1309 36.7724C21.6211 36.4046 21.7519 35.9395 22.0768 33.4081C22.4746 30.3092 22.5475 30.0472 23.2161 29.3165C23.5088 28.9966 27.6555 24.914 32.431 20.2442C37.2064 15.5744 41.1569 11.6337 41.2099 11.4871C41.6881 10.1616 40.4495 8.96055 39.2664 9.60266ZM34.1283 15.6186C33.9614 15.7886 31.1454 18.5423 27.8705 21.7378C24.5956 24.9334 21.7142 27.7981 21.4674 28.1038C20.7745 28.9625 20.4689 29.7824 20.2624 31.3378C20.1643 32.0765 20.0587 32.681 20.0279 32.681C19.9969 32.6811 19.5929 31.2799 19.1299 29.5673C18.23 26.2378 18.2083 26.0499 18.67 25.593C18.8866 25.3785 34.2436 15.3341 34.3828 15.3157C34.4097 15.3122 34.2952 15.4485 34.1283 15.6186ZM42.6621 23.8216C42.3296 24.1165 42.1203 24.7434 42.1203 25.445C42.1203 26.3159 43.2186 26.8155 43.796 26.2072C44.286 25.691 44.4168 24.4164 44.0286 23.9409C43.681 23.5151 43.0682 23.4616 42.6621 23.8216ZM41.5715 28.9547C41.2546 29.2946 41.2171 29.4467 40.0549 35.0938C39.3994 38.2787 38.8632 41.0691 38.8632 41.2948C38.8632 42.2017 39.9245 42.686 40.5252 42.0532C40.6708 41.8997 40.8116 41.6947 40.8381 41.5974C40.8646 41.5002 41.4225 38.8114 42.0779 35.6225C43.3896 29.24 43.3941 29.1964 42.8019 28.816C42.3179 28.5051 41.9523 28.5463 41.5715 28.9547Z" fill="white"></path>
  </symbol>
</svg>